<?xml version="1.0" encoding="UTF-8"?>
<svg width="24px" height="24px" viewBox="0 0 24 24" version="1.1" xmlns="http://www.w3.org/2000/svg" xmlns:xlink="http://www.w3.org/1999/xlink">
    <!-- Generator: Sketch 59.1 (86144) - https://sketch.com -->
    <title>ic_redo</title>
    <desc>Created with Sketch.</desc>
    <g id="ic_redo" stroke="none" stroke-width="1" fill="none" fill-rule="evenodd">
        <g id="Group" transform="translate(12.000000, 12.000000) scale(-1, 1) translate(-12.000000, -12.000000) ">
            <rect id="Rectangle" x="0" y="0" width="24" height="24"></rect>
            <path d="M13,7 C16.8659932,7 20,10.1340068 20,14 C20,14.5522847 19.5522847,15 19,15 C18.4477153,15 18,14.5522847 18,14 C18,11.2385763 15.7614237,9 13,9 C10.9137447,9 9.1259204,10.2777346 8.3763908,12.0933401 L10.2258875,11.0685073 C10.7089267,10.8007543 11.3175639,10.9752782 11.5853169,11.4583174 C11.8530698,11.9413565 11.6785459,12.5499937 11.1955068,12.8177467 L11.1955068,12.8177467 L7.48480962,14.8746197 C7.47988065,14.8773519 7.4749386,14.880038 7.46998397,14.8826782 C7.44967552,14.8937403 7.42866176,14.90403 7.40725026,14.913589 C7.39063049,14.9208071 7.37422521,14.9276167 7.35772729,14.9339596 C7.33973211,14.9410126 7.32139851,14.9474331 7.30283003,14.9533263 C7.28541588,14.9587979 7.2680347,14.9638159 7.25059221,14.9683428 C7.23420942,14.9725719 7.21757822,14.9764136 7.2007941,14.9798348 C7.17939676,14.9842948 7.15805291,14.9879438 7.13667797,14.9908871 C7.09212295,14.9968356 7.04643102,15 7,15 L7.0768379,14.9972873 C7.06248483,14.9983842 7.04813166,14.9991678 7.03378839,14.9996409 L7,15 C6.98887338,15 6.97778921,14.9998183 6.96675029,14.9994576 C6.94936302,14.9990171 6.93127846,14.9979179 6.91325502,14.9963322 C6.89245543,14.994496 6.87215235,14.9921125 6.85204445,14.9891303 C6.83672512,14.9867437 6.82135061,14.9840662 6.80605223,14.9810338 C6.78630204,14.9773253 6.76668483,14.9728442 6.74729655,14.9677958 C6.72827277,14.9625699 6.70959072,14.9571 6.69107953,14.9510918 C6.67503711,14.946169 6.65902689,14.9405162 6.64320943,14.9344734 C6.6247169,14.927159 6.60630882,14.9195086 6.58813016,14.9113098 C6.57225899,14.9043225 6.55694844,14.8969056 6.54186162,14.889116 C6.5254563,14.8805694 6.50903363,14.8715413 6.49285539,14.8620441 C6.47678046,14.8525714 6.46086217,14.8425728 6.4452537,14.8321468 C6.42901189,14.8214567 6.41328532,14.8103181 6.3978615,14.7987037 C6.3846927,14.7885175 6.37172044,14.7782065 6.35901583,14.7675859 C6.34482071,14.7560663 6.33076592,14.7436577 6.31703302,14.7308185 C6.30227555,14.7166463 6.2880362,14.7025012 6.27423033,14.687941 C6.26251835,14.6759168 6.25123148,14.6633717 6.24023158,14.6504968 C6.22734818,14.6351806 6.21493753,14.6197966 6.20298298,14.6040475 C6.17483501,14.5669611 6.1488033,14.5270659 6.12538029,14.4848096 L6.17478532,14.5649867 C6.16034383,14.5439341 6.14668704,14.5223009 6.13385712,14.5001295 L6.12538029,14.4848096 L4.06850727,10.7741125 C3.80075431,10.2910733 3.97527823,9.6824361 4.45831736,9.41468314 C4.94135649,9.14693018 5.54999373,9.3214541 5.81774669,9.80449322 L5.81774669,9.80449322 L6.58595538,11.1920162 C7.66795362,8.72401448 10.1326442,7 13,7 Z" id="Combined-Shape" fill="#000000" fill-rule="nonzero"></path>
        </g>
    </g>
</svg>