<?xml version="1.0" encoding="UTF-8"?>
<svg width="24px" height="24px" viewBox="0 0 24 24" version="1.1" xmlns="http://www.w3.org/2000/svg" xmlns:xlink="http://www.w3.org/1999/xlink">
    <title>ic_bold@2x</title>
    <g id="ic_bold" stroke="none" stroke-width="1" fill="none" fill-rule="evenodd">
        <path d="M8,17.65 L8,16.18 L9.275,16.18 L9.275,8.485 L8,8.485 L8,7 L12.89,7 C13.685,7 14.24,7.06 14.795,7.285 C15.755,7.66 16.415,8.56 16.415,9.745 C16.415,10.735 15.935,11.59 15.11,12.025 L15.11,12.055 C16.295,12.415 16.835,13.45 16.835,14.575 C16.835,16.06 15.875,17.125 14.72,17.47 C14.195,17.62 13.7,17.65 13.13,17.65 L8,17.65 Z M11.24,11.35 L13.115,11.35 C13.955,11.35 14.42,10.765 14.42,9.955 C14.42,9.43 14.225,8.965 13.805,8.74 C13.55,8.62 13.265,8.575 12.89,8.575 L11.24,8.575 L11.24,11.35 Z M11.24,16.075 L13.22,16.075 C13.475,16.075 13.76,16.045 13.985,15.955 C14.525,15.73 14.84,15.13 14.84,14.455 C14.84,13.54 14.27,12.91 13.295,12.91 L11.24,12.91 L11.24,16.075 Z" id="B" fill="#000000" fill-rule="nonzero"></path>
    </g>
</svg>