<?xml version="1.0" encoding="UTF-8"?>
<svg width="24px" height="24px" viewBox="0 0 24 24" version="1.1" xmlns="http://www.w3.org/2000/svg" xmlns:xlink="http://www.w3.org/1999/xlink">
    <title>ic_detached</title>
    <g id="ic_detached" stroke="none" stroke-width="1" fill="none" fill-rule="evenodd">
        <g id="Group" transform="translate(12.000000, 12.000000) rotate(45.000000) translate(-12.000000, -12.000000) translate(3.000000, 3.000000)" fill="#000000" fill-rule="nonzero">
            <path d="M9,-9.09494702e-13 C11.1421954,-9.09494702e-13 12.8910789,1.68396847 12.9951047,3.80035966 L13,4 L13,7 C13,7.55228475 12.5522847,8 12,8 C11.4871642,8 11.0644928,7.61395981 11.0067277,7.11662113 L11,7 L11,4 C11,2.8954305 10.1045695,2 9,2 C7.9456382,2 7.08183488,2.81587779 7.00548574,3.85073766 L7,4 L7,7 C7,7.55228475 6.55228475,8 6,8 C5.48716416,8 5.06449284,7.61395981 5.00672773,7.11662113 L5,7 L5,4 C5,1.790861 6.790861,-9.09494702e-13 9,-9.09494702e-13 Z" id="Path"></path>
            <path d="M9,10 C11.1421954,10 12.8910789,11.6839685 12.9951047,13.8003597 L13,14 L13,17 C13,17.5522847 12.5522847,18 12,18 C11.4871642,18 11.0644928,17.6139598 11.0067277,17.1166211 L11,17 L11,14 C11,12.8954305 10.1045695,12 9,12 C7.9456382,12 7.08183488,12.8158778 7.00548574,13.8507377 L7,14 L7,17 C7,17.5522847 6.55228475,18 6,18 C5.48716416,18 5.06449284,17.6139598 5.00672773,17.1166211 L5,17 L5,14 C5,11.790861 6.790861,10 9,10 Z" id="Path" transform="translate(9.000000, 14.000000) scale(1, -1) translate(-9.000000, -14.000000) "></path>
            <g id="Group-2" transform="translate(15.000000, 4.000000)">
                <path d="M2,4 C2.55228475,4 3,4.44771525 3,5 C3,5.51283584 2.61395981,5.93550716 2.11662113,5.99327227 L2,6 L1,6 C0.44771525,6 -9.09494702e-13,5.55228475 -9.09494702e-13,5 C-9.09494702e-13,4.48716416 0.38604019,4.06449284 0.883378875,4.00672773 L1,4 L2,4 Z" id="Path-26"></path>
                <path d="M0.292893219,7.29289322 C0.65337718,6.93240926 1.22060824,6.90467972 1.61289944,7.20970461 L1.70710678,7.29289322 L2.70710678,8.29289322 C3.09763107,8.68341751 3.09763107,9.31658249 2.70710678,9.70710678 C2.34662282,10.0675907 1.77939176,10.0953203 1.38710056,9.79029539 L1.29289322,9.70710678 L0.292893219,8.70710678 C-0.0976310729,8.31658249 -0.0976310729,7.68341751 0.292893219,7.29289322 Z" id="Path-26"></path>
                <path d="M1.29289322,0.292893219 C1.68341751,-0.0976310729 2.31658249,-0.0976310729 2.70710678,0.292893219 C3.06759074,0.65337718 3.09532028,1.22060824 2.79029539,1.61289944 L2.70710678,1.70710678 L1.70710678,2.70710678 C1.31658249,3.09763107 0.683417511,3.09763107 0.292893219,2.70710678 C-0.0675907428,2.34662282 -0.0953202783,1.77939176 0.209704612,1.38710056 L0.292893219,1.29289322 L1.29289322,0.292893219 Z" id="Path-26"></path>
            </g>
            <g id="Group-2" transform="translate(1.500000, 9.000000) scale(-1, 1) translate(-1.500000, -9.000000) translate(-0.000000, 4.000000)">
                <path d="M2,4 C2.55228475,4 3,4.44771525 3,5 C3,5.51283584 2.61395981,5.93550716 2.11662113,5.99327227 L2,6 L1,6 C0.44771525,6 -1.42108547e-13,5.55228475 -1.42108547e-13,5 C-1.42108547e-13,4.48716416 0.38604019,4.06449284 0.883378875,4.00672773 L1,4 L2,4 Z" id="Path-26"></path>
                <path d="M0.292893219,7.29289322 C0.65337718,6.93240926 1.22060824,6.90467972 1.61289944,7.20970461 L1.70710678,7.29289322 L2.70710678,8.29289322 C3.09763107,8.68341751 3.09763107,9.31658249 2.70710678,9.70710678 C2.34662282,10.0675907 1.77939176,10.0953203 1.38710056,9.79029539 L1.29289322,9.70710678 L0.292893219,8.70710678 C-0.0976310729,8.31658249 -0.0976310729,7.68341751 0.292893219,7.29289322 Z" id="Path-26"></path>
                <path d="M1.29289322,0.292893219 C1.68341751,-0.0976310729 2.31658249,-0.0976310729 2.70710678,0.292893219 C3.06759074,0.65337718 3.09532028,1.22060824 2.79029539,1.61289944 L2.70710678,1.70710678 L1.70710678,2.70710678 C1.31658249,3.09763107 0.683417511,3.09763107 0.292893219,2.70710678 C-0.0675907428,2.34662282 -0.0953202783,1.77939176 0.209704612,1.38710056 L0.292893219,1.29289322 L1.29289322,0.292893219 Z" id="Path-26"></path>
            </g>
        </g>
    </g>
</svg>