<?xml version="1.0" encoding="UTF-8"?>
<svg width="24px" height="24px" viewBox="0 0 24 24" version="1.1" xmlns="http://www.w3.org/2000/svg" xmlns:xlink="http://www.w3.org/1999/xlink">
    <title>ic_refresh</title>
    <g id="ic_refresh" stroke="none" stroke-width="1" fill="none" fill-rule="evenodd">
        <rect id="Bounds" x="0" y="0" width="24" height="24"></rect>
        <path d="M5.59589362,9.59008929 C5.48251699,9.55825932 5.37957111,9.50846145 5.2881489,9.44379215 L5.38232505,9.5025663 C5.33185719,9.4747582 5.28473829,9.44323089 5.24112161,9.40851381 C5.22663536,9.39682687 5.21251148,9.38487904 5.19873519,9.37255806 C5.19740769,9.37162176 5.19582514,9.37020309 5.19424785,9.36878 L5.12484233,9.29924404 C5.12339546,9.29765172 5.12195369,9.29605477 5.12051705,9.29445321 C5.10989754,9.28303527 5.09945576,9.2708204 5.08933669,9.25838731 C5.07579882,9.24136538 5.06265861,9.22413185 5.05008089,9.20647911 C5.03885232,9.1909981 5.02829556,9.17519259 5.0182131,9.15912566 C5.00950993,9.1451394 5.00089251,9.1306792 4.99263684,9.11599448 C4.98261024,9.09807175 4.97329853,9.08016701 4.96454242,9.062016 C4.9573016,9.04735473 4.95025784,9.0318492 4.94360564,9.01614461 C4.9332416,8.99103758 4.92392401,8.96620679 4.91560224,8.94105428 C4.91187678,8.93068197 4.90860053,8.92021872 4.90549389,8.9096861 C4.90166519,8.89571393 4.8978026,8.8814838 4.89425401,8.86717341 C4.888658,8.84565241 4.88408596,8.82411215 4.88022308,8.80234209 C4.87377041,8.76529235 4.86914357,8.72715918 4.86672143,8.68879122 L4.8665766,8.56919039 L5.13239368,3.95654125 C5.16416795,3.40517128 5.63689975,2.98395574 6.18826972,3.01573001 C6.69722661,3.04506011 7.09528269,3.45011733 7.12851919,3.94592769 L7.12908096,4.07160605 L7.03246134,5.72791932 C8.41553123,4.63203075 10.1523928,4 12,4 C16.418278,4 20,7.581722 20,12 C20,16.418278 16.418278,20 12,20 C7.88924086,20 4.45892228,16.8854395 4.04214403,12.8254284 C3.98574591,12.2760309 4.38540094,11.7849364 4.93479852,11.7285383 C5.4841961,11.6721402 5.97529054,12.0717952 6.03168865,12.6211928 C6.3440044,15.663591 8.9172815,18 12,18 C15.3137085,18 18,15.3137085 18,12 C18,8.6862915 15.3137085,6 12,6 C10.3922958,6 8.89712021,6.63736888 7.79762752,7.7163025 L10.5272244,7.84562663 C11.036459,7.8696577 11.4387095,8.27054984 11.4771048,8.7659874 L11.4789746,8.89165311 C11.4549436,9.40088771 11.0540514,9.80313824 10.5586139,9.84153354 L10.4329482,9.8434034 L5.81778215,9.62561118 C5.74272278,9.62225838 5.66871752,9.61049339 5.59589362,9.59008929 Z" id="Combined-Shape" fill="#000000" fill-rule="nonzero"></path>
    </g>
</svg>