<?xml version="1.0" encoding="UTF-8"?>
<svg width="24px" height="24px" viewBox="0 0 24 24" version="1.1" xmlns="http://www.w3.org/2000/svg" xmlns:xlink="http://www.w3.org/1999/xlink">
    <title>ic_update</title>
    <g id="ic_update" stroke="none" stroke-width="1" fill="none" fill-rule="evenodd">
        <rect id="Bounds" x="0" y="0" width="24" height="24"></rect>
        <path d="M16.1682338,5.17051202 C18.5288821,6.61398019 20,9.18074714 20,12 C20,15.4753666 17.7839118,18.433138 14.6877506,19.5372992 L16.4282219,20.6547029 C16.8572165,20.9301318 17.0051296,21.4784398 16.7906621,21.926699 L16.7294486,22.0364636 C16.4540198,22.4654582 15.9057117,22.6133713 15.4574526,22.3989038 L15.3476879,22.3376903 L11.4687129,19.8473477 C11.4322095,19.8244118 11.3972929,19.7991824 11.3641653,19.7718616 L11.459733,19.8414937 C11.4153171,19.8129771 11.3739194,19.7815416 11.3356279,19.7476004 C11.3160435,19.7299989 11.2970753,19.7117477 11.2788483,19.692779 C11.2674484,19.6812861 11.2561374,19.6689325 11.2451778,19.6563408 C11.2309905,19.6396539 11.2170771,19.6225693 11.20373,19.6050303 C11.1930408,19.5913382 11.1829542,19.5773106 11.1732596,19.5630622 C11.1615344,19.5455725 11.1502131,19.5278061 11.1394488,19.5096704 C11.1308024,19.4951887 11.1225855,19.4804454 11.1147573,19.4655249 C11.1025589,19.4424118 11.091278,19.4188066 11.0809168,19.3947126 C11.0766299,19.3843264 11.0724069,19.3739913 11.0683595,19.3635941 C11.0600087,19.3427389 11.0525148,19.3214539 11.0457341,19.2998532 C11.0405082,19.2824011 11.0354767,19.264676 11.0309359,19.2468299 C11.0249124,19.2240349 11.0199532,19.2011466 11.0157918,19.1779815 C11.0136212,19.1650305 11.0115664,19.1522678 11.0097579,19.139467 C11.0065175,19.117105 11.004095,19.094065 11.002468,19.0708058 C11.0009893,19.0502736 11.0001623,19.0302001 10.9999402,19.0100966 C11.000017,19.0067976 11,19.0034008 11,19 L11.0002917,18.9702968 C11.001008,18.9453631 11.0026584,18.9204122 11.0052545,18.8954981 L11,19 C11,18.9387133 11.0055133,18.8787143 11.0160709,18.8204719 C11.0183412,18.8073817 11.0211906,18.7933643 11.0243493,18.7793859 C11.0277373,18.7646895 11.0311738,18.7508791 11.034894,18.7371855 C11.0457494,18.6970894 11.0595963,18.6565108 11.0762107,18.6166094 C11.0984367,18.5629796 11.1250607,18.5120476 11.155688,18.4639118 L11.1641752,18.4510037 L13.7007042,14.5892409 C14.0039065,14.1276276 14.623912,13.9992102 15.0855253,14.3024125 C15.5116298,14.5822915 15.6538279,15.1321094 15.4347063,15.578112 L15.3723537,15.6872336 L14.1020354,17.6214744 C16.3789668,16.7696854 18,14.574149 18,12 C18,9.88456854 16.8972777,7.96056819 15.1248866,6.87680235 C14.6537076,6.58868999 14.5053027,5.97316267 14.793415,5.5019836 C15.0815274,5.03080454 15.6970547,4.88239966 16.1682338,5.17051202 Z M7.55455682,1.96353641 C7.85293803,1.49879229 8.47157334,1.3639285 8.93631746,1.66230972 L8.93631746,1.66230972 L12.8242724,4.15850632 L12.9263115,4.23340757 C13.3102822,4.55427779 13.4017713,5.11975226 13.1198301,5.54899633 L13.1198301,5.54899633 L10.5833012,9.41075913 L10.507924,9.51132575 C10.1856507,9.88957496 9.62458468,9.97746659 9.19848013,9.69758754 L9.19848013,9.69758754 L9.09791351,9.62221034 C8.7196643,9.299937 8.63177267,8.738871 8.91165172,8.31276645 L8.91165172,8.31276645 L10.2621036,6.25554756 C7.79582541,7.00067914 6,9.29062082 6,12 C6,14.2245757 7.22042146,16.2331811 9.14058968,17.276346 C9.62588352,17.5399903 9.80556595,18.1471246 9.54192162,18.6324185 C9.27827729,19.1177123 8.67114295,19.2973948 8.1858491,19.0337504 C5.62775276,17.64402 4,14.9650168 4,12 C4,8.45537395 6.30529574,5.44917857 9.49839471,4.39890637 L7.85578351,3.34529705 L7.75443778,3.27097068 C7.37285469,2.95265178 7.279128,2.39253098 7.55455682,1.96353641 Z" id="Combined-Shape" fill="#000000" fill-rule="nonzero"></path>
    </g>
</svg>