<?xml version="1.0" encoding="UTF-8"?>
<svg width="24px" height="24px" viewBox="0 0 24 24" version="1.1" xmlns="http://www.w3.org/2000/svg" xmlns:xlink="http://www.w3.org/1999/xlink">
    <!-- Generator: Sketch 59.1 (86144) - https://sketch.com -->
    <title>spinner_dark</title>
    <desc>Created with Sketch.</desc>
    <g id="spinner_dark" stroke="none" stroke-width="1" fill="none" fill-rule="evenodd">
        <path d="M12,2 C17.5228475,2 22,6.4771525 22,12 C22,17.5228475 17.5228475,22 12,22 C6.4771525,22 2,17.5228475 2,12 C2,6.4771525 6.4771525,2 12,2 Z M12,6 C8.6862915,6 6,8.6862915 6,12 C6,15.3137085 8.6862915,18 12,18 C15.3137085,18 18,15.3137085 18,12 C18,8.6862915 15.3137085,6 12,6 Z" id="Oval" fill-opacity="0.3" fill="#FFFFFF" fill-rule="nonzero"></path>
        <path d="M22,12 C22,6.4771525 17.5228475,2 12,2 L12,6 C15.3137085,6 18,8.6862915 18,12 L22,12 Z" id="Oval" fill="#FFFFFF" fill-rule="nonzero"></path>
    </g>
</svg>