<?xml version="1.0" encoding="UTF-8"?>
<svg width="24px" height="24px" viewBox="0 0 24 24" version="1.1" xmlns="http://www.w3.org/2000/svg" xmlns:xlink="http://www.w3.org/1999/xlink">
    <!-- Generator: Sketch 63.1 (92452) - https://sketch.com -->
    <title>ic_api</title>
    <desc>Created with Sketch.</desc>
    <g id="ic_api" stroke="none" stroke-width="1" fill="none" fill-rule="evenodd">
        <rect id="Bounds" x="0" y="0" width="24" height="24"></rect>
        <path d="M6.115,18.84 L6.115,17.16 L5.305,17.16 C5.125,17.16 4.9825,17.125 4.8775,17.055 C4.7725,16.985 4.69,16.8975 4.63,16.7925 C4.57,16.6875 4.5325,16.57 4.5175,16.44 C4.5025,16.31 4.495,16.19 4.495,16.08 L4.495,13.68 C4.495,13.36 4.4375,13.0975 4.3225,12.8925 C4.2075,12.6875 4.0725,12.5225 3.9175,12.3975 C3.7625,12.2725 3.6,12.1825 3.43,12.1275 C3.26,12.0725 3.12,12.04 3.01,12.03 L3.01,11.985 C3.12,11.975 3.26,11.945 3.43,11.895 C3.6,11.845 3.7625,11.7575 3.9175,11.6325 C4.0725,11.5075 4.2075,11.3325 4.3225,11.1075 C4.4375,10.8825 4.495,10.585 4.495,10.215 L4.495,7.935 C4.495,7.815 4.5025,7.69 4.5175,7.56 C4.5325,7.43 4.57,7.3125 4.63,7.2075 C4.69,7.1025 4.7725,7.015 4.8775,6.945 C4.9825,6.875 5.125,6.84 5.305,6.84 L6.115,6.84 L6.115,5.16 L4.21,5.16 C4.04,5.16 3.8475,5.2025 3.6325,5.2875 C3.4175,5.3725 3.2175,5.4975 3.0325,5.6625 C2.8475,5.8275 2.69,6.0375 2.56,6.2925 C2.43,6.5475 2.365,6.845 2.365,7.185 L2.365,10.005 C2.365,10.255 2.315,10.4675 2.215,10.6425 C2.115,10.8175 1.995,10.9575 1.855,11.0625 C1.715,11.1675 1.565,11.2425 1.405,11.2875 C1.245,11.3325 1.11,11.355 1,11.355 L1,12.66 C1.11,12.66 1.245,12.6825 1.405,12.7275 C1.565,12.7725 1.715,12.8425 1.855,12.9375 C1.995,13.0325 2.115,13.16 2.215,13.32 C2.315,13.48 2.365,13.675 2.365,13.905 L2.365,16.815 C2.365,17.155 2.43,17.4525 2.56,17.7075 C2.69,17.9625 2.8475,18.1725 3.0325,18.3375 C3.2175,18.5025 3.4175,18.6275 3.6325,18.7125 C3.8475,18.7975 4.04,18.84 4.21,18.84 L6.115,18.84 Z M19.905,5.16 C20.075,5.16 20.2675,5.2025 20.4825,5.2875 C20.6975,5.3725 20.8975,5.4975 21.0825,5.6625 C21.2675,5.8275 21.425,6.0375 21.555,6.2925 C21.685,6.5475 21.75,6.845 21.75,7.185 L21.75,7.185 L21.75,10.005 C21.75,10.255 21.8,10.4675 21.9,10.6425 C22,10.8175 22.12,10.9575 22.26,11.0625 C22.4,11.1675 22.55,11.2425 22.71,11.2875 C22.87,11.3325 23.01,11.355 23.13,11.355 L23.13,11.355 L23.13,12.66 C23.01,12.66 22.87,12.6825 22.71,12.7275 C22.55,12.7725 22.4,12.8425 22.26,12.9375 C22.12,13.0325 22,13.16 21.9,13.32 C21.8,13.48 21.75,13.675 21.75,13.905 L21.75,13.905 L21.75,16.815 C21.75,17.155 21.685,17.4525 21.555,17.7075 C21.425,17.9625 21.2675,18.1725 21.0825,18.3375 C20.8975,18.5025 20.6975,18.6275 20.4825,18.7125 C20.2675,18.7975 20.075,18.84 19.905,18.84 L19.905,18.84 L18,18.84 L18,17.16 L18.81,17.16 C18.99,17.16 19.1325,17.125 19.2375,17.055 C19.3425,16.985 19.425,16.8975 19.485,16.7925 C19.545,16.6875 19.5825,16.57 19.5975,16.44 C19.6125,16.31 19.62,16.19 19.62,16.08 L19.62,16.08 L19.62,13.68 C19.62,13.36 19.6775,13.0975 19.7925,12.8925 C19.9075,12.6875 20.0425,12.5225 20.1975,12.3975 C20.3525,12.2725 20.515,12.1825 20.685,12.1275 C20.855,12.0725 20.995,12.04 21.105,12.03 L21.105,12.03 L21.105,11.985 C20.995,11.975 20.855,11.945 20.685,11.895 C20.515,11.845 20.3525,11.7575 20.1975,11.6325 C20.0425,11.5075 19.9075,11.3325 19.7925,11.1075 C19.6775,10.8825 19.62,10.585 19.62,10.215 L19.62,10.215 L19.62,7.935 C19.62,7.815 19.6125,7.69 19.5975,7.56 C19.5825,7.43 19.545,7.3125 19.485,7.2075 C19.425,7.1025 19.3425,7.015 19.2375,6.945 C19.1325,6.875 18.99,6.84 18.81,6.84 L18.81,6.84 L18,6.84 L18,5.16 Z M7.5,10.16 C8.32842712,10.16 9,10.8315729 9,11.66 C9,12.4884271 8.32842712,13.16 7.5,13.16 C6.67157288,13.16 6,12.4884271 6,11.66 C6,10.8315729 6.67157288,10.16 7.5,10.16 Z M12,10.16 C12.8284271,10.16 13.5,10.8315729 13.5,11.66 C13.5,12.4884271 12.8284271,13.16 12,13.16 C11.1715729,13.16 10.5,12.4884271 10.5,11.66 C10.5,10.8315729 11.1715729,10.16 12,10.16 Z M16.5,10.16 C17.3284271,10.16 18,10.8315729 18,11.66 C18,12.4884271 17.3284271,13.16 16.5,13.16 C15.6715729,13.16 15,12.4884271 15,11.66 C15,10.8315729 15.6715729,10.16 16.5,10.16 Z" id="{}" fill="#000000" fill-rule="nonzero"></path>
    </g>
</svg>