<?xml version="1.0" encoding="UTF-8"?>
<svg width="24px" height="24px" viewBox="0 0 24 24" version="1.1" xmlns="http://www.w3.org/2000/svg" xmlns:xlink="http://www.w3.org/1999/xlink">
    <title>ic_chain</title>
    <g id="ic_chain" stroke="none" stroke-width="1" fill="none" fill-rule="evenodd">
        <g id="Group" transform="translate(12.000000, 12.000000) rotate(45.000000) translate(-12.000000, -12.000000) translate(8.000000, 3.000000)" fill="#000000" fill-rule="nonzero">
            <path d="M7,10 C7.51283584,10 7.93550716,10.3860402 7.99327227,10.8833789 L8,11 L8,14 L7.99510469,14.1996403 C7.89107888,16.3160315 6.14219539,18 4,18 C1.85780461,18 0.108921124,16.3160315 0.00489530723,14.1996403 L-5.45696821e-12,14 L-5.45696821e-12,11 L0.00672773132,10.8833789 C0.0644928393,10.3860402 0.487164161,10 1,10 C1.51283584,10 1.93550716,10.3860402 1.99327227,10.8833789 L2,11 L2,14 L2.00548574,14.1492623 C2.08183488,15.1841222 2.9456382,16 4,16 C5.0543618,16 5.91816512,15.1841222 5.99451426,14.1492623 L6,14 L6,11 L6.00672773,10.8833789 C6.06449284,10.3860402 6.48716416,10 7,10 Z M4,6 C4.55228475,6 5,6.44771525 5,7 L5,11 C5,11.5522847 4.55228475,12 4,12 C3.44771525,12 3,11.5522847 3,11 L3,7 C3,6.44771525 3.44771525,6 4,6 Z M4,-1.59161573e-11 C6.14219539,-1.59161573e-11 7.89107888,1.68396847 7.99510469,3.80035966 L8,4 L8,7 C8,7.55228475 7.55228475,8 7,8 C6.48716416,8 6.06449284,7.61395981 6.00672773,7.11662113 L6,7 L6,4 C6,2.8954305 5.1045695,2 4,2 C2.9456382,2 2.08183488,2.81587779 2.00548574,3.85073766 L2,4 L2,7 C2,7.55228475 1.55228475,8 1,8 C0.487164161,8 0.0644928393,7.61395981 0.00672773132,7.11662113 L-5.91171556e-12,7 L-5.91171556e-12,4 C-5.91171556e-12,1.790861 1.790861,-1.59161573e-11 4,-1.59161573e-11 Z" id="Combined-Shape"></path>
        </g>
    </g>
</svg>