<?xml version="1.0" encoding="UTF-8"?>
<svg width="24px" height="24px" viewBox="0 0 24 24" version="1.1" xmlns="http://www.w3.org/2000/svg" xmlns:xlink="http://www.w3.org/1999/xlink">
    <!-- Generator: Sketch 62 (91390) - https://sketch.com -->
    <title>ic_duplicate</title>
    <desc>Created with Sketch.</desc>
    <g id="ic_duplicate" stroke="none" stroke-width="1" fill="none" fill-rule="evenodd">
        <path d="M6,5 C5.44771525,5 5,5.44771525 5,6 L5,14 C5,14.5522847 5.44771525,15 6,15 L14,15 C14.5522847,15 15,14.5522847 15,14 L15,6 C15,5.44771525 14.5522847,5 14,5 L6,5 Z M14,3 C15.5976809,3 16.9036609,4.24891996 16.9949073,5.82372721 L17,6 C18.6568542,6 20,7.34314575 20,9 L20,17 C20,18.6568542 18.6568542,20 17,20 L9,20 C7.40231912,20 6.09633912,18.75108 6.00509269,17.1762728 L6,17 C4.34314575,17 3,15.6568542 3,14 L3,6 C3,4.34314575 4.34314575,3 6,3 L14,3 Z M17,14 C17,15.6568542 15.6568542,17 14,17 L8,17 L8.00672773,17.1166211 C8.06449284,17.6139598 8.48716416,18 9,18 L17,18 C17.5522847,18 18,17.5522847 18,17 L18,9 C18,8.44771525 17.5522847,8 17,8 L17,14 Z" id="Rectangle" fill="#000000" fill-rule="nonzero"></path>
    </g>
</svg>