<?xml version="1.0" encoding="UTF-8"?>
<svg width="24px" height="24px" viewBox="0 0 24 24" version="1.1" xmlns="http://www.w3.org/2000/svg" xmlns:xlink="http://www.w3.org/1999/xlink">
    <!-- Generator: Sketch 63.1 (92452) - https://sketch.com -->
    <title>ic_exit</title>
    <desc>Created with Sketch.</desc>
    <g id="ic_exit" stroke="none" stroke-width="1" fill="none" fill-rule="evenodd">
        <rect id="Bounds" x="0" y="0" width="24" height="24"></rect>
        <path d="M13,3 C14.5976809,3 15.9036609,4.24891996 15.9949073,5.82372721 L16,6 L16,8 C16,8.55228475 15.5522847,9 15,9 C14.4871642,9 14.0644928,8.61395981 14.0067277,8.11662113 L14,8 L14,6 C14,5.48716416 13.6139598,5.06449284 13.1166211,5.00672773 L13,5 L6,5 C5.48716416,5 5.06449284,5.38604019 5.00672773,5.88337887 L5,6 L5,18 C5,18.5128358 5.38604019,18.9355072 5.88337887,18.9932723 L6,19 L13,19 C13.5128358,19 13.9355072,18.6139598 13.9932723,18.1166211 L14,18 L14,16 C14,15.4477153 14.4477153,15 15,15 C15.5128358,15 15.9355072,15.3860402 15.9932723,15.8833789 L16,16 L16,18 C16,19.5976809 14.75108,20.9036609 13.1762728,20.9949073 L13,21 L6,21 C4.40231912,21 3.09633912,19.75108 3.00509269,18.1762728 L3,18 L3,6 C3,4.40231912 4.24891996,3.09633912 5.82372721,3.00509269 L6,3 L13,3 Z M22.8847916,11.5338896 C22.8955847,11.5540242 22.9056034,11.5746902 22.9149171,11.5957378 C22.9220685,11.6123374 22.9289416,11.6291099 22.9353399,11.6460174 C22.9428317,11.6652914 22.9494597,11.6845787 22.9555046,11.7041222 C22.9614025,11.7238271 22.9668755,11.7436742 22.9717248,11.7636386 C22.9765567,11.7828345 22.9806707,11.8023264 22.9842082,11.8220185 C23.0052866,11.9398068 23.0052866,12.0601932 22.9841403,12.1776023 C22.9806707,12.1976736 22.9765567,12.2171655 22.9718843,12.2364393 C22.9668755,12.2563258 22.9614025,12.2761729 22.9553058,12.2958726 L22.9356409,12.3537194 L22.9356409,12.3537194 C22.9289416,12.3708901 22.9220685,12.3876626 22.9147204,12.4042801 C22.9056034,12.4253098 22.8955847,12.4459758 22.884891,12.4662302 C22.8806399,12.4739836 22.8763761,12.4818142 22.872,12.4896 L22.8603878,12.5099455 C22.847773,12.5311836 22.8343941,12.5519148 22.8202891,12.5721011 L22.8,12.6 L19.8,16.6 C19.4686292,17.0418278 18.8418278,17.1313708 18.4,16.8 C17.992159,16.4941192 17.8844895,15.9365107 18.1309704,15.5050252 L18.2,15.4 L19.999,12.9999411 L12,13 C11.4477153,13 11,12.5522847 11,12 C11,11.4871642 11.3860402,11.0644928 11.8833789,11.0067277 L12,11 L19.999,10.9999411 L18.2,8.6 C17.8941192,8.19215895 17.946887,7.62670731 18.3043246,7.28149586 L18.4,7.2 C18.807841,6.89411922 19.3732927,6.94688696 19.7185041,7.30432455 L19.8,7.4 L22.8145868,11.4198231 L22.8385133,11.4549049 L22.8385133,11.4549049 L22.842,11.461 L22.8,11.4 L22.8609682,11.4910329 L22.8609682,11.4910329 L22.8847916,11.5338896 L22.8847916,11.5338896 Z" id="Combined-Shape" fill="#000000" fill-rule="nonzero"></path>
    </g>
</svg>