<?xml version="1.0" encoding="UTF-8"?>
<svg width="24px" height="24px" viewBox="0 0 24 24" version="1.1" xmlns="http://www.w3.org/2000/svg" xmlns:xlink="http://www.w3.org/1999/xlink">
    <!-- Generator: Sketch 63.1 (92452) - https://sketch.com -->
    <title>ic_freeze</title>
    <desc>Created with Sketch.</desc>
    <g id="ic_freeze" stroke="none" stroke-width="1" fill="none" fill-rule="evenodd">
        <rect id="Bounds" x="0" y="0" width="24" height="24"></rect>
        <path d="M12,2 C12.5522847,2 13,2.44771525 13,3 L12.999,3.76 L14.1158957,3.12968912 C14.5622223,2.87711605 15.1202036,3.00492423 15.4154179,3.40931402 L15.4787093,3.50749723 C15.7312824,3.95382384 15.6034742,4.51180515 15.1990844,4.80701943 L15.1009012,4.87031088 L12.999,6.059 L12.9984672,10.267 L16.6442003,8.1632263 L16.6228198,5.74916599 C16.6180506,5.19690183 17.0618828,4.74533702 17.614147,4.74056775 C18.1664112,4.73579847 18.617976,5.17963077 18.6227452,5.73189493 L18.6343267,7.0142263 L19.293872,6.63459232 C19.7721646,6.35844995 20.383755,6.5223251 20.6598974,7.00061773 C20.9360398,7.47891035 20.7721646,8.09050075 20.293872,8.36664313 L19.6351927,8.7457771 L20.7395058,9.39788169 C21.1814038,9.65812534 21.3497093,10.2052554 21.1471046,10.6631134 L21.0937212,10.767017 C20.8334775,11.208915 20.2863474,11.3772205 19.8284895,11.1746158 L19.7245859,11.1212324 L17.6442003,9.8952771 L13.9994672,11.999 L17.644487,14.1042263 L19.7244343,12.8786801 C20.2003245,12.5984177 20.8133072,12.7570054 21.0935696,13.2328955 C21.373832,13.7087857 21.2152444,14.3217684 20.7393542,14.6020308 L19.6346134,15.2532263 L20.2931587,15.6345923 C20.7714513,15.9107347 20.9353265,16.5223251 20.6591841,17.0006177 C20.3830417,17.4789103 19.7714513,17.6427855 19.2931587,17.3666431 L18.6354794,16.9857771 L18.6228968,18.2681926 C18.6184682,18.7810093 18.2287924,19.2003312 17.7309734,19.2537994 L17.6142985,19.2595197 C17.1014818,19.2550911 16.6821599,18.8654154 16.6286918,18.3675964 L16.6229714,18.2509215 L16.644487,15.8362771 L12.9984672,13.731 L12.999,17.937 L15.1009012,19.1261113 L15.1990844,19.1894028 C15.5697751,19.4600159 15.7080603,19.9514263 15.533988,20.3752339 L15.4787093,20.488925 L15.4154179,20.5871082 C15.1448048,20.9577988 14.6533944,21.0960841 14.2295868,20.9220118 L14.1158957,20.8667331 L12.999,20.235 L13,21 C13,21.5522847 12.5522847,22 12,22 C11.4477153,22 11,21.5522847 11,21 L10.999,20.234 L9.88267775,20.8665581 C9.43635115,21.1191312 8.87836983,20.991323 8.58315555,20.5869332 L8.51986411,20.48875 C8.26729104,20.0424234 8.39509922,19.4844421 8.79948901,19.1892278 L8.89767222,19.1259363 L10.999,17.936 L10.9984672,13.732 L7.35755053,15.8342771 L7.37870052,18.2491326 L7.37298012,18.3658075 C7.32362489,18.8253327 6.9625363,19.1927122 6.50393201,19.2499963 L6.38737333,19.2577309 L6.27069846,19.2520105 C5.81117325,19.2026552 5.44379372,18.8415666 5.38650966,18.3829623 L5.37877509,18.2664037 L5.36742416,16.9832771 L4.70541472,17.3666431 C4.2271221,17.6427855 3.61553169,17.4789103 3.33938932,17.0006177 C3.06324694,16.5223251 3.2271221,15.9107347 3.70541472,15.6345923 L4.36829018,15.2507263 L3.26231768,14.6002419 C2.82041968,14.3399983 2.65211415,13.7928682 2.85471885,13.3350102 L2.90810228,13.2311066 C3.16834592,12.7892086 3.715476,12.6209031 4.17333396,12.8235078 L4.27723757,12.8768912 L6.35841656,14.1017263 L9.99846721,11.999 L6.35783725,9.8972771 L4.27708602,11.1230213 L4.17318242,11.1764047 C3.7505443,11.3634244 3.25184,11.2344023 2.9729284,10.8658814 L2.90795073,10.7688059 L2.8545673,10.6649023 C2.66754759,10.2422642 2.79656971,9.74355985 3.16509064,9.46464825 L3.26216613,9.39967058 L4.36771087,8.7482771 L3.70470143,8.36664313 C3.22640881,8.09050075 3.06253366,7.47891035 3.33867603,7.00061773 C3.61481841,6.5223251 4.22640881,6.35844995 4.70470143,6.63459232 L5.36857689,7.0167263 L5.37892663,5.73368382 C5.38335524,5.22086711 5.77303103,4.80154521 6.27085,4.74807704 L6.38752488,4.74235664 C6.9003416,4.74678525 7.31966349,5.13646104 7.37313167,5.63428001 L7.37885206,5.75095489 L7.35870327,8.1657263 L10.9984672,10.267 L10.999,6.059 L8.89767222,4.87048587 C8.41701279,4.5984841 8.24786234,3.98833165 8.51986411,3.50767222 C8.79186588,3.02701279 9.40201833,2.85786234 9.88267775,3.12986411 L10.999,3.761 L11,3 C11,2.44771525 11.4477153,2 12,2 Z" id="Combined-Shape" fill="#000000"></path>
    </g>
</svg>