<?xml version="1.0" encoding="UTF-8"?>
<svg width="24px" height="24px" viewBox="0 0 24 24" version="1.1" xmlns="http://www.w3.org/2000/svg" xmlns:xlink="http://www.w3.org/1999/xlink">
    <!-- Generator: Sketch 63.1 (92452) - https://sketch.com -->
    <title>ic_film</title>
    <desc>Created with Sketch.</desc>
    <g id="ic_film" stroke="none" stroke-width="1" fill="none" fill-rule="evenodd">
        <path d="M18,3 C19.6568542,3 21,4.34314575 21,6 L21,6 L21,18 C21,19.6568542 19.6568542,21 18,21 L18,21 L6,21 C4.34314575,21 3,19.6568542 3,18 L3,18 L3,6 C3,4.34314575 4.34314575,3 6,3 L6,3 Z M7,17 L5,17 L5,18 C5,18.5128358 5.38604019,18.9355072 5.88337887,18.9932723 L6,19 L7,19 L7,17 Z M15,5 L9,5 L9,19 L15,19 L15,5 Z M19,17 L17,17 L17,19 L18,19 C18.5128358,19 18.9355072,18.6139598 18.9932723,18.1166211 L19,18 L19,17 Z M19,13 L17,13 L17,15 L19,15 L19,13 Z M7,13 L5,13 L5,15 L7,15 L7,13 Z M19,9 L17,9 L17,11 L19,11 L19,9 Z M7,9 L5,9 L5,11 L7,11 L7,9 Z M7,5 L6,5 C5.44771525,5 5,5.44771525 5,6 L5,6 L5,7 L7,7 L7,5 Z M18,5 L17,5 L17,7 L19,7 L19,6 C19,5.48716416 18.6139598,5.06449284 18.1166211,5.00672773 L18,5 Z" id="Combined-Shape" fill="#000000" fill-rule="nonzero"></path>
    </g>
</svg>