<?xml version="1.0" encoding="UTF-8"?>
<svg width="24px" height="24px" viewBox="0 0 24 24" version="1.1" xmlns="http://www.w3.org/2000/svg" xmlns:xlink="http://www.w3.org/1999/xlink">
    <!-- Generator: Sketch 61.2 (89653) - https://sketch.com -->
    <title>ic_gear</title>
    <desc>Created with Sketch.</desc>
    <g id="ic_gear" stroke="none" stroke-width="1" fill="none" fill-rule="evenodd">
        <path d="M21.9347604,13.1582058 C21.8643102,13.7731475 21.3453942,14.2384045 20.7264669,14.2415545 L20.6514694,14.2415545 L20.5598058,14.2415545 C20.0042214,14.2442526 19.5075533,14.5885154 19.3100266,15.1078322 C19.1124999,15.6271489 19.2548272,16.2144822 19.6681685,16.5857546 C20.1434382,17.0238257 20.2015217,17.753897 19.8014975,18.2616118 C19.3234546,18.855672 18.778167,19.3923163 18.1765511,19.8608013 C17.9624229,20.0285543 17.6985823,20.1203165 17.4265758,20.1216383 C17.0818116,20.120718 16.7528872,19.976769 16.5182725,19.7241327 C16.2450941,19.4429703 15.8686299,19.2860526 15.4766402,19.2899598 C15.3169431,19.2892082 15.1585664,19.3189052 15.0099889,19.377461 C14.4896231,19.59618 14.1581528,20.1132981 14.1766831,20.6774796 C14.1972187,21.3182817 13.722123,21.8673877 13.0850524,21.9391642 C12.3372628,22.0221847 11.5824758,22.0202277 10.8351267,21.9333308 C10.1909429,21.8579705 9.71853065,21.2914153 9.76016214,20.6441458 C9.78841939,20.0746605 9.45931723,19.5477397 8.93518936,19.3232936 C8.78428346,19.2623832 8.62293626,19.2315276 8.46020503,19.232459 C8.06847135,19.2290153 7.69228244,19.3855173 7.41857274,19.6657985 C6.98083449,20.1480209 6.2434866,20.2064275 5.73529495,19.7991337 C5.15106982,19.3266066 4.62266925,18.7889546 4.16034692,18.1966109 C3.76045402,17.6951823 3.81880989,16.9693468 4.29367585,16.5382539 C4.70829018,16.1547271 4.84408426,15.5555488 4.63533125,15.0307324 C4.4354643,14.5362909 3.96020974,14.2085136 3.42703778,14.1973872 L3.37703943,14.1973872 C2.73286855,14.2059186 2.17811308,13.7447785 2.06874927,13.1098717 C1.97708358,12.3545767 1.97708358,11.5909677 2.06874927,10.8356727 C2.1350055,10.2016656 2.68175014,9.72779788 3.31870802,9.75232388 C3.89501526,9.77461694 4.42920685,9.45146493 4.67699654,8.93064551 C4.89499761,8.4028788 4.7583036,7.79506182 4.33534114,7.41145719 C3.86018547,6.97367169 3.80209531,6.24387963 4.20201221,5.73643332 C4.67842466,5.14347227 5.22078755,4.60667539 5.81862553,4.13641052 C6.03606743,3.96886835 6.30244173,3.87724297 6.57693384,3.87557347 C6.92218388,3.876635 7.25135867,4.02159956 7.4852372,4.27557917 C7.75947833,4.55477871 8.13554106,4.71032561 8.5268695,4.70641864 C8.68626471,4.7080969 8.84455776,4.67982895 8.99352077,4.62308412 C9.51444131,4.40365574 9.84592973,3.88551485 9.8268266,3.32056556 C9.80677189,2.6802506 10.281844,2.13189717 10.9184573,2.0605476 C11.6662676,1.97791166 12.4210111,1.97986849 13.168383,2.06638102 C13.8120099,2.14212729 14.2840879,2.70791566 14.2433475,3.35473271 C14.2113843,3.92558467 14.54159,4.45493946 15.0683203,4.67725156 C15.2194137,4.73743004 15.3806707,4.76798544 15.5433046,4.76725284 C15.9348591,4.77062521 16.3109211,4.61447692 16.5849369,4.33474668 C17.0199248,3.8543214 17.7535703,3.79518897 18.2598817,4.19974476 C18.8474548,4.67068805 19.3787285,5.20785907 19.8431628,5.8006009 C20.2457991,6.3042055 20.1874098,7.03410704 19.7098338,7.46729132 C19.2947252,7.8429575 19.1561217,8.43669822 19.3619948,8.95734085 C19.567868,9.47798347 20.0750446,9.81634485 20.6348033,9.80649132 C21.2747563,9.80103665 21.824724,10.2593647 21.9347604,10.8898401 C22.0217465,11.64346 22.0217465,12.4045859 21.9347604,13.1582058 L21.9347604,13.1582058 Z M20.2848148,11.2223448 C19.2215608,11.1973895 18.2736772,10.546015 17.869177,9.56234691 C17.4646769,8.57867876 17.6801144,7.44888277 18.4182098,6.68311348 C18.0931385,6.28388785 17.7303635,5.91690966 17.3349122,5.58726453 C16.8168896,6.07013969 16.1348035,6.33822113 15.4266418,6.33727522 C15.0864569,6.33932944 14.7492978,6.27331114 14.4350079,6.14310578 C13.44694,5.72524008 12.8017591,4.76004323 12.7933954,3.68723745 C12.2806208,3.63974303 11.7645542,3.63974303 11.2517796,3.68723745 C11.1938972,4.72051517 10.5096087,5.6131075 9.5268365,5.93726952 C9.24807082,6.11417697 8.93617956,6.23241769 8.61020008,6.28477447 C7.90593283,6.28565094 7.22732758,6.02044662 6.71026278,5.54226389 C6.30341718,5.87110608 5.92945343,6.23866842 5.59363296,6.63977953 C6.34007511,7.41100412 6.55627692,8.55234154 6.14361481,9.54315424 C5.71326172,10.5177518 4.75873455,11.1560814 3.69369565,11.1815109 C3.645074,11.7024903 3.64228561,12.2267328 3.68536259,12.7481999 C4.75121906,12.7687845 5.70316695,13.4201339 6.10849383,14.4061744 C6.51382071,15.3922148 6.29518463,16.524796 5.55196766,17.289098 C5.88119073,17.6848318 6.24360673,18.0517257 6.63526525,18.3857802 C7.15480619,17.9053196 7.83590576,17.6376259 8.54353562,17.6357696 C8.88654961,17.6331806 9.2265919,17.699492 9.54350262,17.8307723 C10.5320367,18.247165 11.1776177,19.2123051 11.1851151,20.284974 C11.6978695,20.3329051 12.2139766,20.3329051 12.7267309,20.284974 C12.7598445,19.2259852 13.4079454,18.2837517 14.3850095,17.8741063 C14.6948755,17.7494357 15.0259769,17.6860423 15.3599774,17.687437 C16.0671244,17.685261 16.7488882,17.9508339 17.2682477,18.4307809 C17.6723771,18.0989046 18.0460705,17.7316079 18.3848775,17.3332652 C17.6345521,16.5640581 17.4178815,15.4202459 17.8348957,14.4298905 C18.2555619,13.4462682 19.215193,12.8019141 20.2848148,12.7848671 C20.3350795,12.2641255 20.3350795,11.7397531 20.2848148,11.2190115 L20.2848148,11.2223448 Z M12.0017548,15.3249033 C10.6503694,15.330301 9.42904608,14.5203619 8.90814899,13.2733314 C8.3872519,12.026301 8.6695557,10.5882224 9.62322311,9.6306855 C10.5768905,8.67314862 12.0137599,8.38507857 13.262806,8.9010055 C14.5118522,9.41693244 15.3266343,10.6350623 15.3266451,11.9865224 C15.3294103,13.8261996 13.8413415,15.3203062 12.0017548,15.3249033 L12.0017548,15.3249033 Z M12.0017548,10.3314988 C11.0824094,10.3360958 10.3404248,11.0843218 10.3434855,12.0037171 C10.3465462,12.9231124 11.093496,13.6663812 12.0128517,13.6648565 C12.9322074,13.6633318 13.6766881,12.9175896 13.6766996,11.9981892 C13.6769269,11.5545634 13.5002924,11.1291517 13.1859133,10.8161655 C12.8715342,10.5031793 12.4453542,10.3284473 12.0017548,10.3306655 L12.0017548,10.3314988 Z" id="gear" fill="#000000"></path>
    </g>
</svg>