<?xml version="1.0" encoding="UTF-8"?>
<svg width="24px" height="24px" viewBox="0 0 24 24" version="1.1" xmlns="http://www.w3.org/2000/svg" xmlns:xlink="http://www.w3.org/1999/xlink">
    <title>ic_globe</title>
    <g id="ic_globe" stroke="none" stroke-width="1" fill="none" fill-rule="evenodd">
        <path d="M12,3.19467554 C13.0465515,3.19467554 14.0513818,3.37330559 14.9856646,3.70173956 C15.0184404,3.70963927 15.0459231,3.72065483 15.0733367,3.73180978 C18.5302101,4.98859155 21,8.30320837 21,12.1946755 C21,17.1652383 16.9705627,21.1946755 12,21.1946755 C7.02943725,21.1946755 3,17.1652383 3,12.1946755 C3,7.22411279 7.02943725,3.19467554 12,3.19467554 Z M12.3314494,5.19467554 C11.3170931,5.19467554 10.3531288,5.41042953 9.48294409,5.79854996 L9.10385711,6.60935436 C9.03008875,6.76662965 8.91610279,6.90163997 8.7734235,7.00073543 L8.7734235,7.00073543 L6.22506595,8.76983479 C6.01156445,9.14968523 5.83247995,9.55147389 5.69203996,9.97097325 L5.56976787,10.6857411 C5.51654385,10.99599 5.6145558,11.3130138 5.83359165,11.5390901 L5.83359165,11.5390901 L6.4476485,12.1728846 L7.40470251,13.1176145 C7.57473985,13.2854623 7.67809238,13.5093103 7.69557027,13.7475961 L7.69557027,13.7475961 L7.98334576,17.6808282 C9.17757018,18.6285956 10.6884023,19.1946755 12.3314494,19.1946755 C16.1974426,19.1946755 19.3314494,16.0606688 19.3314494,12.1946755 C19.3314494,11.3410859 19.178666,10.5231807 18.8989541,9.76681481 L16.7815702,9.69479832 L17.3695592,10.3404063 C17.5514492,10.5401203 17.5464521,10.8469105 17.3581543,11.0405947 C17.1728199,11.2312308 16.8682552,11.2362042 16.6767953,11.051721 L16.6767953,11.051721 L16.3084795,10.6968262 C16.2960885,10.6848867 16.2826956,10.6740327 16.2684482,10.6643838 C16.130931,10.5712508 15.9439521,10.6072313 15.8508192,10.7447485 C15.7319985,10.9201954 15.742809,11.1529164 15.8773829,11.3165924 L15.8773829,11.3165924 L16.3069342,11.8390358 C16.4030122,11.955891 16.446714,12.107162 16.4277555,12.257251 L16.4277555,12.257251 L16.1920393,14.1233445 C16.1880503,14.1549249 16.1868104,14.1867919 16.1883336,14.2185867 L16.1883336,14.2185867 L16.2229418,14.9409756 C16.2281932,15.0505894 16.200533,15.1592679 16.1435187,15.2530342 L16.1435187,15.2530342 L14.8285291,17.4156791 C14.7226407,17.5898242 14.529131,17.6911341 14.3256854,17.6789375 L14.3256854,17.6789375 L13.5320258,17.6313572 C13.2727672,17.6158145 13.0597207,17.421024 13.0210763,17.164191 L13.0210763,17.164191 L12.821014,15.834564 C12.8139597,15.7876807 12.8008728,15.7419063 12.7820788,15.6983794 L12.7820788,15.6983794 L12.0657545,14.0393729 C11.9980851,13.8826506 11.8614779,13.7662351 11.6960071,13.7242772 L11.6960071,13.7242772 L10.0029686,13.2949793 C9.81744595,13.247937 9.66972057,13.1078289 9.61293151,12.9250542 L9.61293151,12.9250542 L9.10452221,11.2887461 C9.04081453,11.0837039 9.10225445,10.8603344 9.26186416,10.7167178 L9.26186416,10.7167178 L10.6670156,9.45236387 C10.7496094,9.3780461 10.8527755,9.33048668 10.9629277,9.31594886 L10.9629277,9.31594886 L12.2292148,9.14882506 C12.308815,9.13831947 12.3897501,9.14536972 12.4663349,9.16948056 L12.4663349,9.16948056 L14.3290884,9.75592284 L15.4841086,9.22887796 L15.3058205,7.90259666 L13.6911591,8.16897535 L12.2106342,8.35871578 C12.2106342,8.35871578 10.6606669,8.79797908 10.4356118,8.67040232 C10.2726358,8.57801622 10.7938172,7.46313098 10.7938172,7.46313098 L10.7938172,7.46313098 L11.9584346,6.40142301 L13.0873574,5.42215983 L13.2204977,5.25059879 C12.9293476,5.21369516 12.6326196,5.19467554 12.3314494,5.19467554 Z" id="Combined-Shape" fill="#000000" fill-rule="nonzero"></path>
    </g>
</svg>