<?xml version="1.0" encoding="UTF-8"?>
<svg width="24px" height="24px" viewBox="0 0 24 24" version="1.1" xmlns="http://www.w3.org/2000/svg" xmlns:xlink="http://www.w3.org/1999/xlink">
    <!-- Generator: Sketch 62 (91390) - https://sketch.com -->
    <title>ic_interaction</title>
    <desc>Created with Sketch.</desc>
    <g id="ic_interaction" stroke="none" stroke-width="1" fill="none" fill-rule="evenodd">
        <path d="M7.56132867,8.7677758 C7.16544818,6.55533352 9.5067074,5.22018465 11.2131302,6.65940721 L11.2131302,6.65940721 L19.9594126,14.036153 C21.5152403,15.3483614 20.9116226,17.6260904 18.9930642,18.0029799 L18.9930642,18.0029799 L18.8099674,18.0312628 L19.4941872,19.2159782 C20.1345764,20.3251649 19.7770511,21.7150614 18.7464284,22.4061474 L18.7464284,22.4061474 L18.6082089,22.4922455 L17.5754295,23.088521 C16.4366082,23.7460198 14.9649001,23.377778 14.2951097,22.217667 L14.2951097,22.217667 L13.6148509,21.0410571 L13.5887724,21.0757448 C12.3509155,22.6223121 10.0626527,22.1145495 9.60794881,20.1821008 L9.60794881,20.1821008 L9.57663669,20.0306514 Z M9.85595784,8.13622368 C9.61590564,7.97079179 9.4703948,8.08205317 9.53006027,8.41550336 L9.53006027,8.41550336 L11.5453683,19.678379 L11.5648013,19.7619795 C11.647872,20.0448652 11.856792,20.0664614 12.0552699,19.789029 L12.0552699,19.789029 L13.2169272,18.1652637 L13.2830269,18.0819806 C13.6005246,17.7225028 14.0374201,17.7713356 14.297373,18.2215873 L14.297373,18.2215873 L16.0271605,21.217667 L16.0744844,21.2831613 C16.1978271,21.4211906 16.4057616,21.454428 16.5754295,21.3564702 L16.5754295,21.3564702 L17.6082089,20.7601947 L17.6741231,20.7128881 C17.8143297,20.5894804 17.857419,20.3810126 17.7621363,20.2159782 L17.7621363,20.2159782 L16.0069805,17.175959 L15.9582586,17.0809812 C15.7613613,16.6419427 15.9879919,16.2678886 16.509255,16.2235707 L16.509255,16.2235707 L18.5182121,16.052769 L18.6041749,16.0411254 C18.8959372,15.9848749 18.9289135,15.7833853 18.6699699,15.5649883 L18.6699699,15.5649883 L9.9236875,8.18824258 Z M5.23686028,11.25 C5.51300265,11.7282926 5.3491275,12.339883 4.87083488,12.6160254 L4.00480947,13.1160254 C3.52651685,13.3921678 2.91492644,13.2282926 2.63878407,12.75 C2.36264169,12.2717074 2.52651685,11.660117 3.00480947,11.3839746 L3.87083488,10.8839746 C4.3491275,10.6078322 4.9607179,10.7717074 5.23686028,11.25 Z M17.3612159,4.25 C17.6373583,4.72829262 17.4734832,5.33988303 16.9951905,5.6160254 L16.1291651,6.1160254 C15.6508725,6.39216778 15.0392821,6.22829262 14.7631397,5.75 C14.4869973,5.27170738 14.6508725,4.66011697 15.1291651,4.3839746 L15.9951905,3.8839746 C16.4734832,3.60783222 17.0850736,3.77170738 17.3612159,4.25 Z M4.00480947,3.8839746 L4.87083488,4.3839746 C5.3491275,4.66011697 5.51300265,5.27170738 5.23686028,5.75 C4.9607179,6.22829262 4.3491275,6.39216778 3.87083488,6.1160254 L3.00480947,5.6160254 C2.52651685,5.33988303 2.36264169,4.72829262 2.63878407,4.25 C2.91492644,3.77170738 3.52651685,3.60783222 4.00480947,3.8839746 Z M10,0 C10.5522847,-1.01453063e-16 11,0.44771525 11,1 L11,2 C11,2.55228475 10.5522847,3 10,3 C9.44771525,3 9,2.55228475 9,2 L9,1 C9,0.44771525 9.44771525,1.01453063e-16 10,0 Z" id="Combined-Shape" fill="#000000" fill-rule="nonzero"></path>
    </g>
</svg>