<?xml version="1.0" encoding="UTF-8"?>
<svg width="24px" height="24px" viewBox="0 0 24 24" version="1.1" xmlns="http://www.w3.org/2000/svg" xmlns:xlink="http://www.w3.org/1999/xlink">
    <!-- Generator: Sketch 61.2 (89653) - https://sketch.com -->
    <title>ic_image</title>
    <desc>Created with Sketch.</desc>
    <g id="ic_image" stroke="none" stroke-width="1" fill="none" fill-rule="evenodd">
        <path d="M21.0089096,3 C22.6608432,3 24,4.35292554 24,5.99253976 L24,18.0074602 C24,19.6601943 22.6582294,21 21.0089096,21 L2.99109042,21 C1.33915679,21 0,19.6470745 0,18.0074602 L0,5.99253976 C0,4.33980569 1.34177063,3 2.99109042,3 L21.0089096,3 Z M21.0089096,5 L2.99109042,5 C2.44538411,5 2,5.44533111 2,5.99253976 L2,18.0074602 C2,18.5486038 2.44981537,19 2.99109042,19 L21.0089096,19 C21.5546159,19 22,18.5546689 22,18.0074602 L22,5.99253976 C22,5.45139619 21.5501846,5 21.0089096,5 Z M13.4657849,9.84829712 C13.7584677,9.38353682 14.2395669,9.383307 14.5350876,9.85614014 L14.5350876,9.85614014 L18.4649124,16.1438599 C18.7588396,16.6141434 18.5492199,17 17.9931545,17 L17.9931545,17 L6.00684547,17 C5.44994876,17 5.24901155,16.6289728 5.55618286,16.1712875 L5.55618286,16.1712875 L8.44381714,11.8687125 C8.74978209,11.4128247 9.35145822,11.3176534 9.78500391,11.6601562 L9.78500391,11.6601562 L10.6959961,12.3798437 C11.1360276,12.7274704 11.7201763,12.6202044 12.0152151,12.1517029 L12.0152151,12.1517029 Z M6.5,7 C7.328,7 8,7.672 8,8.5 C8,9.329 7.328,10 6.5,10 C5.672,10 5,9.329 5,8.5 C5,7.672 5.672,7 6.5,7 Z" id="Rectangle-37" fill="#000000" fill-rule="nonzero"></path>
    </g>
</svg>