<?xml version="1.0" encoding="UTF-8"?>
<svg width="24px" height="24px" viewBox="0 0 24 24" version="1.1" xmlns="http://www.w3.org/2000/svg" xmlns:xlink="http://www.w3.org/1999/xlink">
    <title>ic_loop</title>
    <g id="ic_loop" stroke="none" stroke-width="1" fill="none" fill-rule="evenodd">
        <rect id="Bounds" x="0" y="0" width="24" height="24"></rect>
        <path d="M4.00988091,8.6673915 L5.46638538,10.1238539 C5.16868854,10.6833831 5,11.3219919 5,12 C5,14.1421954 6.68396847,15.8910789 8.80035966,15.9951047 L9,16 L15,16 C15.1333009,16 15.2650788,15.9934795 15.3950323,15.98074 L14.2944661,14.8786797 L14.2167597,14.7914588 C13.9059343,14.3989412 13.9318364,13.8270958 14.2944661,13.4644661 C14.6849904,13.0739418 15.3181554,13.0739418 15.7086797,13.4644661 L15.7086797,13.4644661 L18.5371068,16.2928932 L18.6148131,16.380114 C18.9256386,16.7726317 18.8997365,17.3444771 18.5371068,17.7071068 L18.5371068,17.7071068 L15.7086797,20.5355339 L15.6214588,20.6132403 C15.2289412,20.9240657 14.6570958,20.8981636 14.2944661,20.5355339 L14.2944661,20.5355339 L14.2167597,20.4483131 C13.9059343,20.0557954 13.9318364,19.48395 14.2944661,19.1213203 L14.2944661,19.1213203 L15.4329063,17.9846222 C15.3638998,17.9895422 15.2945706,17.9932951 15.2249383,17.9958615 L15,18 L9,18 C5.6862915,18 3,15.3137085 3,12 C3,10.7668815 3.3719925,9.62064643 4.00988091,8.6673915 Z M9.70710678,3.46446609 C10.0697365,3.82709579 10.0956386,4.39894119 9.78481315,4.79145884 L9.70710678,4.87867966 L8.5681367,6.01530353 L8.70269516,6.00723739 L8.70269516,6.00723739 L9,6 L15,6 C18.3137085,6 21,8.6862915 21,12 C21,13.2326857 20.6282686,14.3785489 19.9907907,15.3316047 L18.5341522,13.8751355 C18.8315145,13.3158479 19,12.6775999 19,12 C19,9.85780461 17.3160315,8.10892112 15.1996403,8.00489531 L15,8 L9,8 C8.86741755,8 8.73634167,8.00645042 8.60706908,8.01905455 L9.70710678,9.12132034 C10.0697365,9.48395004 10.0956386,10.0557954 9.78481315,10.4483131 L9.70710678,10.5355339 C9.34447708,10.8981636 8.77263169,10.9240657 8.38011403,10.6132403 L8.29289322,10.5355339 L5.46446609,7.70710678 C5.10183639,7.34447708 5.07593427,6.77263169 5.38675973,6.38011403 L5.46446609,6.29289322 L8.29289322,3.46446609 C8.68341751,3.0739418 9.31658249,3.0739418 9.70710678,3.46446609 Z" id="Combined-Shape" fill="#000000" fill-rule="nonzero"></path>
    </g>
</svg>