<?xml version="1.0" encoding="UTF-8"?>
<svg width="16px" height="16px" viewBox="0 0 16 16" version="1.1" xmlns="http://www.w3.org/2000/svg" xmlns:xlink="http://www.w3.org/1999/xlink">
    <!-- Generator: Sketch 62 (91390) - https://sketch.com -->
    <title>ic_loop</title>
    <desc>Created with Sketch.</desc>
    <g id="ic_loop" stroke="none" stroke-width="1" fill="none" fill-rule="evenodd">
        <path d="M2,6 C2.51283584,6 2.93550716,6.38604019 2.99327227,6.88337887 L3,7 L3,9 C3,10.0543618 3.81587779,10.9181651 4.85073766,10.9945143 L5,11 L8.585,11 L8.29289322,10.7071068 L8.20970461,10.6128994 C7.90467972,10.2206082 7.93240926,9.65337718 8.29289322,9.29289322 C8.68341751,8.90236893 9.31658249,8.90236893 9.70710678,9.29289322 L9.70710678,9.29289322 L11.7071068,11.2928932 C11.7355731,11.3213595 11.7623312,11.3515341 11.787214,11.3832499 C11.7910504,11.3880716 11.7918034,11.3890437 11.7925543,11.3900168 C11.8145395,11.418642 11.8350511,11.4484386 11.8539326,11.4793398 C11.8613931,11.4913869 11.8685012,11.5036056 11.8753288,11.5159379 C11.8862061,11.5357061 11.8966234,11.5561086 11.9063462,11.5769009 C11.914321,11.5939015 11.9218036,11.6112044 11.9287745,11.628664 C11.9365565,11.6481012 11.9436413,11.6675532 11.9501291,11.6872762 C11.9550667,11.7024696 11.9598084,11.7181954 11.9641549,11.734007 C11.9701664,11.7555635 11.9753602,11.7772539 11.9798348,11.7992059 C11.9832978,11.8166247 11.9863719,11.834051 11.9889822,11.8515331 C11.9920328,11.8714753 11.9944666,11.892114 11.9962623,11.912935 C11.9978436,11.9317345 11.9989053,11.9497336 11.9994829,11.9677454 C11.9998183,11.9777892 12,11.9888734 12,12 L11.9994506,12.0332468 C11.9988884,12.0502546 11.9978945,12.0672508 11.9964691,12.0842176 L12,12 C12,12.0506203 11.9962388,12.1003621 11.9889807,12.1489612 C11.9863719,12.165949 11.9832978,12.1833753 11.9797599,12.2007258 C11.9753602,12.2227461 11.9701664,12.2444365 11.964279,12.2658396 C11.9599023,12.2814633 11.9552713,12.2968513 11.9502619,12.3121425 C11.9438775,12.3317977 11.9366843,12.3515792 11.928896,12.3710585 C11.9218036,12.3887956 11.914321,12.4060985 11.9063266,12.4232215 C11.8966234,12.4438914 11.8862061,12.4642939 11.8751242,12.484277 C11.8685012,12.4963944 11.8613931,12.5086131 11.8540045,12.5207088 C11.8382813,12.546275 11.8215099,12.5711307 11.8036865,12.5951593 C11.774687,12.6343256 11.7425008,12.6717127 11.7071068,12.7071068 L11.787214,12.6167501 C11.7849289,12.6196628 11.7826279,12.6225624 11.7803112,12.625449 L11.7071068,12.7071068 L9.70710678,14.7071068 L9.61289944,14.7902954 C9.22060824,15.0953203 8.65337718,15.0675907 8.29289322,14.7071068 L8.29289322,14.7071068 L8.20970461,14.6128994 C7.90467972,14.2206082 7.93240926,13.6533772 8.29289322,13.2928932 L8.29289322,13.2928932 L8.584,13 L5,13 C2.85780461,13 1.10892112,11.3160315 1.00489531,9.19964034 L1,9 L1,7 C1,6.44771525 1.44771525,6 2,6 Z M7.70710678,1.29289322 C8.06759074,1.65337718 8.09532028,2.22060824 7.79029539,2.61289944 L7.70710678,2.70710678 L7.414,3 L11,3 C13.1421954,3 14.8910789,4.68396847 14.9951047,6.80035966 L15,7 L15,9 C15,9.55228475 14.5522847,10 14,10 C13.4871642,10 13.0644928,9.61395981 13.0067277,9.11662113 L13,9 L13,7 C13,5.9456382 12.1841222,5.08183488 11.1492623,5.00548574 L11,5 L7.415,5 L7.70710678,5.29289322 C8.06759074,5.65337718 8.09532028,6.22060824 7.79029539,6.61289944 L7.70710678,6.70710678 C7.34662282,7.06759074 6.77939176,7.09532028 6.38710056,6.79029539 L6.29289322,6.70710678 L4.29289322,4.70710678 L4.21968877,4.62544899 C4.2173721,4.62256244 4.21507113,4.61966276 4.21278596,4.61675008 L4.29289322,4.70710678 C4.25749917,4.67171273 4.22531295,4.63432558 4.19633458,4.59530661 C4.17849009,4.57113069 4.1617187,4.54627495 4.14606743,4.52066019 C4.13860692,4.50861311 4.13149883,4.49639444 4.12467117,4.4840621 C4.11379392,4.46429395 4.10337664,4.4438914 4.09365378,4.42309915 C4.08567905,4.4060985 4.07819642,4.38879565 4.07122549,4.37133602 C4.06331574,4.3515792 4.05612249,4.33179768 4.04954668,4.31173641 C4.04472872,4.29685134 4.04009773,4.28146328 4.03584514,4.26599297 C4.02983363,4.24443648 4.0246398,4.22274608 4.02016515,4.2007941 C4.01670217,4.18337526 4.01362808,4.16594901 4.0110178,4.14846687 C4.00810098,4.12942044 4.00574796,4.10969493 4.00397748,4.08980185 C4.00189498,4.06599489 4.00063489,4.04268105 4.00018615,4.0193545 C4.00006128,4.01290861 4,4.00646146 4,4 L4.00016755,3.98163795 C4.00059932,3.95798023 4.0018656,3.93433491 4.00396641,3.91074993 L4,4 C4,3.94937972 4.00376119,3.89963791 4.01101934,3.85103878 C4.01362808,3.83405099 4.01670217,3.81662474 4.02024007,3.79927424 C4.0246398,3.77725392 4.02983363,3.75556352 4.03572097,3.73416039 C4.04009773,3.71853672 4.04472872,3.70314866 4.04973809,3.68785748 C4.05612249,3.66820232 4.06331574,3.6484208 4.07110396,3.62894148 C4.07819642,3.61120435 4.08567905,3.5939015 4.09367336,3.57677845 C4.10337664,3.5561086 4.11379392,3.53570605 4.12487577,3.51572305 C4.13149883,3.50360556 4.13860692,3.49138689 4.14599545,3.47929125 C4.16387214,3.45020075 4.1831264,3.42204394 4.20372997,3.39496966 C4.20569238,3.39228694 4.20769125,3.38968994 4.20970461,3.38710056 C4.23766884,3.35153408 4.26442691,3.32135953 4.29289322,3.29289322 L6.29289322,1.29289322 C6.68341751,0.902368927 7.31658249,0.902368927 7.70710678,1.29289322 Z" id="Combined-Shape" fill="#000000" fill-rule="nonzero"></path>
    </g>
</svg>