<?xml version="1.0" encoding="UTF-8"?>
<svg width="24px" height="24px" viewBox="0 0 24 24" version="1.1" xmlns="http://www.w3.org/2000/svg" xmlns:xlink="http://www.w3.org/1999/xlink">
    <!-- Generator: Sketch 63.1 (92452) - https://sketch.com -->
    <title>ic_map</title>
    <desc>Created with Sketch.</desc>
    <g id="ic_map" stroke="none" stroke-width="1" fill="none" fill-rule="evenodd">
        <rect id="Bounds" x="0" y="0" width="24" height="24"></rect>
        <path d="M14,17 C12.4023191,17 11.0963391,15.75108 11.0050927,14.1762728 L11,14 L11,10 C11,9.48716416 10.6139598,9.06449284 10.1166211,9.00672773 L10,9 L9,9 C9,10.6568542 7.65685425,12 6,12 L6,12 L5,12 C3.34314575,12 2,10.6568542 2,9 L2,9 L2,7 C2,5.34314575 3.34314575,4 5,4 L5,4 L6,4 C7.65685425,4 9,5.34314575 9,7 L9,7 L10,7 C11.5976809,7 12.9036609,8.24891996 12.9949073,9.82372721 L13,10 L13,14 C13,14.5128358 13.3860402,14.9355072 13.8833789,14.9932723 L14,15 L15,15 C15,13.3431458 16.3431458,12 18,12 L18,12 L19,12 C20.6568542,12 22,13.3431458 22,15 L22,15 L22,17 C22,18.6568542 20.6568542,20 19,20 L19,20 L18,20 C16.3431458,20 15,18.6568542 15,17 L15,17 L14,17 Z M19,14 L18,14 C17.4477153,14 17,14.4477153 17,15 L17,15 L17,17 C17,17.5522847 17.4477153,18 18,18 L18,18 L19,18 C19.5522847,18 20,17.5522847 20,17 L20,17 L20,15 C20,14.4477153 19.5522847,14 19,14 L19,14 Z M6,6 L5,6 C4.44771525,6 4,6.44771525 4,7 L4,7 L4,9 C4,9.55228475 4.44771525,10 5,10 L5,10 L6,10 C6.55228475,10 7,9.55228475 7,9 L7,9 L7,7 C7,6.44771525 6.55228475,6 6,6 L6,6 Z" id="Combined-Shape" fill="#000000" fill-rule="nonzero"></path>
    </g>
</svg>