<?xml version="1.0" encoding="UTF-8"?>
<svg width="24px" height="24px" viewBox="0 0 24 24" version="1.1" xmlns="http://www.w3.org/2000/svg" xmlns:xlink="http://www.w3.org/1999/xlink">
    <!-- Generator: Sketch 63.1 (92452) - https://sketch.com -->
    <title>ic_magnet</title>
    <desc>Created with Sketch.</desc>
    <g id="ic_magnet" stroke="none" stroke-width="1" fill="none" fill-rule="evenodd">
        <rect id="Bounds" x="0" y="0" width="24" height="24"></rect>
        <g id="Group" transform="translate(11.000000, 13.000000) rotate(45.000000) translate(-11.000000, -13.000000) translate(3.000000, 5.000000)" fill="#000000" fill-rule="nonzero">
            <path d="M5,0 C5.55228475,0 6,0.44771525 6,1 L6,1 L6,8 C6,9.1045695 6.8954305,10 8,10 C9.06065749,10 9.93556398,9.17152317 9.99532439,8.14739386 L9.99532439,8.14739386 L10,8 L10,1 C10,0.44771525 10.4477153,0 11,0 L11,0 L15,0 C15.5522847,0 16,0.44771525 16,1 L16,1 L16,8 C16,12.418278 12.418278,16 8,16 C3.581722,16 -2.13162821e-12,12.418278 -2.13162821e-12,8 L-2.13162821e-12,8 L-2.13162821e-12,1 C-2.13162821e-12,0.44771525 0.44771525,0 1,0 L1,0 Z M3.999,4 L1.999,4 L2,8 C2,11.1630854 4.44763337,13.7544954 7.55221297,13.9835428 L7.77506174,13.9958615 L8,14 C11.3137085,14 14,11.3137085 14,8 L14,8 L13.999,4 L11.999,4 L11.9995829,8.02887893 L11.9932329,8.2341171 C11.871007,10.3435937 10.1217721,12 8,12 C5.790861,12 4,10.209139 4,8 L4,8 L3.999,4 Z" id="Combined-Shape"></path>
        </g>
    </g>
</svg>