<?xml version="1.0" encoding="UTF-8"?>
<svg width="24px" height="24px" viewBox="0 0 24 24" version="1.1" xmlns="http://www.w3.org/2000/svg" xmlns:xlink="http://www.w3.org/1999/xlink">
    <!-- Generator: Sketch 63.1 (92452) - https://sketch.com -->
    <title>ic_no_access</title>
    <desc>Created with Sketch.</desc>
    <g id="ic_no_access" stroke="none" stroke-width="1" fill="none" fill-rule="evenodd">
        <rect id="Bounds" x="0" y="0" width="24" height="24"></rect>
        <path d="M12,3 C16.9705627,3 21,7.02943725 21,12 C21,16.9705627 16.9705627,21 12,21 C7.02943725,21 3,16.9705627 3,12 C3,7.02943725 7.02943725,3 12,3 Z M17.408056,7.55525694 L7.89107297,17.6677792 C9.0450076,18.5057873 10.464789,19 12,19 C15.8659932,19 19,15.8659932 19,12 C19,10.3123099 18.4027403,8.76411717 17.408056,7.55525694 Z M12,5 C8.13400675,5 5,8.13400675 5,12 C5,13.6094882 5.54319194,15.092107 6.4562526,16.2745334 L15.9309518,6.20713724 C14.8103826,5.44525561 13.4571888,5 12,5 Z" id="Combined-Shape" fill="#000000" fill-rule="nonzero"></path>
    </g>
</svg>