<?xml version="1.0" encoding="UTF-8"?>
<svg width="24px" height="24px" viewBox="0 0 24 24" version="1.1" xmlns="http://www.w3.org/2000/svg" xmlns:xlink="http://www.w3.org/1999/xlink">
    <!-- Generator: Sketch 62 (91390) - https://sketch.com -->
    <title>ic_play</title>
    <desc>Created with Sketch.</desc>
    <g id="ic_play" stroke="none" stroke-width="1" fill="none" fill-rule="evenodd">
        <path d="M10.594394,5.48668463 L4.46491253,15.9943672 C4.24188078,16.3767074 4.12435979,16.8114082 4.12435979,17.2540448 C4.12435979,18.6347566 5.24364791,19.7540448 6.62435979,19.7540448 L18.8833228,19.7540448 C19.3259594,19.7540448 19.7606602,19.6365238 20.1430004,19.413492 C21.3356301,18.7177913 21.7384707,17.186997 21.04277,15.9943672 L14.9132885,5.48668463 C14.6959916,5.11417554 14.3860279,4.80421191 14.0135188,4.58691494 C12.8208891,3.89121423 11.2900947,4.29405484 10.594394,5.48668463 Z M13.0057768,6.31447274 C13.0802786,6.35793214 13.1422713,6.41992486 13.1857307,6.49442668 L19.3152122,17.0021093 C19.4543524,17.2406352 19.3737843,17.5467941 19.1352583,17.6859342 C19.0587903,17.7305406 18.9718501,17.7540448 18.8833228,17.7540448 L6.62435979,17.7540448 C6.34821741,17.7540448 6.12435979,17.5301871 6.12435979,17.2540448 C6.12435979,17.1655174 6.14786398,17.0785773 6.19247034,17.0021093 L12.3219518,6.49442668 C12.461092,6.25590072 12.7672508,6.1753326 13.0057768,6.31447274 Z" id="Triangle" fill="#333333" fill-rule="nonzero" transform="translate(12.754045, 12.000000) rotate(-270.000000) translate(-12.754045, -12.000000) "></path>
    </g>
</svg>