<?xml version="1.0" encoding="UTF-8"?>
<svg width="24px" height="24px" viewBox="0 0 24 24" version="1.1" xmlns="http://www.w3.org/2000/svg" xmlns:xlink="http://www.w3.org/1999/xlink">
    <!-- Generator: Sketch 62 (91390) - https://sketch.com -->
    <title>ic_trash</title>
    <desc>Created with Sketch.</desc>
    <g id="ic_trash" stroke="none" stroke-width="1" fill="none" fill-rule="evenodd">
        <path d="M15.0029699,4 C15.5536144,4 16,4.44335318 16,5.0093689 L16,7 L18,7 L18.9991283,7 C19.5124112,7 19.9354509,7.38272018 19.9932664,7.88266744 L20,8 C20,8.55228475 19.5553691,9 18.9991283,9 L18,9 L18,17.0012144 C18,18.6573979 16.6583772,20 15.002848,20 L8.99715203,20 C7.34187067,20 6,18.6577357 6,17.0012144 L6,9 L5.00087166,9 C4.4481055,9 4,8.55613518 4,8 C4,7.44771525 4.44463086,7 5.00087166,7 L6,7 L8,7 L8,5.0093689 C8,4.45190985 8.45303631,4 8.99703014,4 L15.0029699,4 Z M15.999,9 L8,9 L8,17.0012144 C8,17.5138269 8.38502059,17.9356425 8.88088014,17.9932866 L8.99715203,18 L15.002848,18 C15.5141236,18 15.9356766,17.6147348 15.9932899,17.1177595 L16,17.0012144 L15.999,9 Z M14,6 L10,6 L10,7 L14,7 L14,6 Z" id="Combined-Shape" fill="#434A4B" fill-rule="nonzero"></path>
    </g>
</svg>