<?xml version="1.0" encoding="UTF-8"?>
<svg width="24px" height="24px" viewBox="0 0 24 24" version="1.1" xmlns="http://www.w3.org/2000/svg" xmlns:xlink="http://www.w3.org/1999/xlink">
    <!-- Generator: Sketch 63.1 (92452) - https://sketch.com -->
    <title>ic_time_timeline</title>
    <desc>Created with Sketch.</desc>
    <g id="ic_time_timeline" stroke="none" stroke-width="1" fill="none" fill-rule="evenodd">
        <path d="M8.69724641,13 C9.09206886,13 9.47805861,13.1168598 9.80657959,13.3358546 L9.80657959,13.3358546 L12,14.797 L14.1934204,13.3358546 C14.4750098,13.1481448 14.7988212,13.0354729 15.1342265,13.0071118 L15.1342265,13.0071118 L15.3027536,13 L19,13 C20.1045695,13 21,13.8954305 21,15 L21,15 L21,19 C21,20.1045695 20.1045695,21 19,21 L19,21 L5,21 C3.8954305,21 3,20.1045695 3,19 L3,19 L3,15 C3,13.8954305 3.8954305,13 5,13 L5,13 Z M8.69724641,15 L5,15 L5,19 L19,19 L19,15 L15.3027536,15 L12.8319999,16.647025 C12.3281739,16.9828796 11.6718261,16.9828796 11.1680001,16.647025 L11.1680001,16.647025 L8.69724641,15 Z M14,2 C15.1045695,2 16,2.8954305 16,4 L16,4 L16,8.57152386 C16,9.11876587 15.7757614,9.64210553 15.3795435,10.0195776 L15.3795435,10.0195776 L12.9032473,12.3787154 C12.3760399,12.8809797 11.567935,12.9300071 10.9143864,12.4483283 L10.9143864,12.4483283 L10.7812743,12.3259928 L8.55024619,9.97837853 C8.19698117,9.60665305 8,9.11343356 8,8.60062169 L8,8.60062169 L8,4 C8,2.8954305 8.8954305,2 10,2 L10,2 Z M14,4 L10,4 L10,8.60062169 L11.883,10.587 L14,8.57152386 L14,4 Z" id="Combined-Shape" fill="#000000" fill-rule="nonzero"></path>
    </g>
</svg>