<?xml version="1.0" encoding="UTF-8"?>
<svg width="24px" height="24px" viewBox="0 0 24 24" version="1.1" xmlns="http://www.w3.org/2000/svg" xmlns:xlink="http://www.w3.org/1999/xlink">
    <title>ic_underline</title>
    <g id="ic_underline" stroke="none" stroke-width="1" fill="none" fill-rule="evenodd">
        <path d="M18,19 L18,20 L6,20 L6,19 L18,19 Z M10.995,6.35 L10.995,7.835 L9.705,7.835 L9.705,12.995 C9.705,13.595 9.84,14.135 10.065,14.51 C10.44,15.11 11.175,15.455 12.075,15.455 C12.96,15.455 13.68,15.125 14.07,14.495 C14.31,14.09 14.43,13.595 14.43,12.98 L14.43,7.835 L13.155,7.835 L13.155,6.35 L17.67,6.35 L17.67,7.835 L16.395,7.835 L16.395,12.995 C16.395,14.03 16.11,14.99 15.615,15.665 C14.835,16.685 13.5,17.18 12.075,17.18 C10.56,17.18 9.27,16.625 8.535,15.68 C7.98,14.99 7.74,14.06 7.74,12.995 L7.74,7.835 L6.465,7.835 L6.465,6.35 L10.995,6.35 Z" id="Combined-Shape" fill="#000000"></path>
    </g>
</svg>