<?xml version="1.0" encoding="UTF-8"?>
<svg width="24px" height="24px" viewBox="0 0 24 24" version="1.1" xmlns="http://www.w3.org/2000/svg" xmlns:xlink="http://www.w3.org/1999/xlink">
    <!-- Generator: Sketch 63.1 (92452) - https://sketch.com -->
    <title>ic_waveform</title>
    <desc>Created with Sketch.</desc>
    <g id="ic_waveform" stroke="none" stroke-width="1" fill="none" fill-rule="evenodd">
        <rect id="Bounds" x="0" y="0" width="24" height="24"></rect>
        <g id="Group" transform="translate(2.000000, 4.000000)" fill="#000000">
            <path d="M16,0 C16.5522847,-1.01453063e-16 17,0.44771525 17,1 L17,15 C17,15.5522847 16.5522847,16 16,16 C15.4477153,16 15,15.5522847 15,15 L15,1 C15,0.44771525 15.4477153,1.01453063e-16 16,0 Z M7,2 C7.55228475,2 8,2.44771525 8,3 L8,13 C8,13.5522847 7.55228475,14 7,14 C6.44771525,14 6,13.5522847 6,13 L6,3 C6,2.44771525 6.44771525,2 7,2 Z M4,4 C4.55228475,4 5,4.44771525 5,5 L5,11 C5,11.5522847 4.55228475,12 4,12 C3.44771525,12 3,11.5522847 3,11 L3,5 C3,4.44771525 3.44771525,4 4,4 Z M13,4 C13.5522847,4 14,4.44771525 14,5 L14,11 C14,11.5522847 13.5522847,12 13,12 C12.4477153,12 12,11.5522847 12,11 L12,5 C12,4.44771525 12.4477153,4 13,4 Z M1,6 C1.55228475,6 2,6.44771525 2,7 L2,9 C2,9.55228475 1.55228475,10 1,10 C0.44771525,10 6.76353751e-17,9.55228475 0,9 L0,7 C-6.76353751e-17,6.44771525 0.44771525,6 1,6 Z M10,6 C10.5522847,6 11,6.44771525 11,7 L11,9 C11,9.55228475 10.5522847,10 10,10 C9.44771525,10 9,9.55228475 9,9 L9,7 C9,6.44771525 9.44771525,6 10,6 Z M19,6 C19.5522847,6 20,6.44771525 20,7 L20,9 C20,9.55228475 19.5522847,10 19,10 C18.4477153,10 18,9.55228475 18,9 L18,7 C18,6.44771525 18.4477153,6 19,6 Z" id="ic_"></path>
        </g>
    </g>
</svg>