<?xml version="1.0" encoding="UTF-8"?>
<svg width="24px" height="24px" viewBox="0 0 24 24" version="1.1" xmlns="http://www.w3.org/2000/svg" xmlns:xlink="http://www.w3.org/1999/xlink">
    <!-- Generator: Sketch 63.1 (92452) - https://sketch.com -->
    <title>ic_zoom_out</title>
    <desc>Created with Sketch.</desc>
    <g id="ic_zoom_out" stroke="none" stroke-width="1" fill="none" fill-rule="evenodd">
        <rect id="Bounds" x="0" y="0" width="24" height="24"></rect>
        <path d="M10,3 C13.8659932,3 17,6.13400675 17,10 C17,11.5723496 16.4815869,13.0236173 15.6063605,14.1922034 L19.8061058,18.3918922 C20.1966301,18.7824165 20.1966301,19.4155815 19.8061058,19.8061058 C19.4456218,20.1665898 18.8783908,20.1943193 18.4860996,19.8892944 L18.3918922,19.8061058 L14.1922034,15.6063605 C13.0236173,16.4815869 11.5723496,17 10,17 C6.13400675,17 3,13.8659932 3,10 C3,6.13400675 6.13400675,3 10,3 Z M10,5 C7.23857625,5 5,7.23857625 5,10 C5,12.7614237 7.23857625,15 10,15 C11.2960115,15 12.4768564,14.506913 13.3651664,13.6981075 C13.4046631,13.6310831 13.4536291,13.5684367 13.5110329,13.5110329 C13.5684367,13.4536291 13.6310831,13.4046631 13.6974309,13.3641351 C14.506913,12.4768564 15,11.2960115 15,10 C15,7.23857625 12.7614237,5 10,5 Z M10,7 C10.5522847,7 11,7.44771525 11,8 L11,9 L12,9 C12.5522847,9 13,9.44771525 13,10 C13,10.5522847 12.5522847,11 12,11 L10.999,11 L11,12 C11,12.5522847 10.5522847,13 10,13 C9.44771525,13 9,12.5522847 9,12 L8.999,11 L8,11 C7.44771525,11 7,10.5522847 7,10 C7,9.44771525 7.44771525,9 8,9 L9,9 L9,8 C9,7.44771525 9.44771525,7 10,7 Z" id="Combined-Shape" fill="#000000" fill-rule="nonzero"></path>
    </g>
</svg>