<?xml version="1.0" encoding="UTF-8"?>
<svg width="24px" height="24px" viewBox="0 0 24 24" version="1.1" xmlns="http://www.w3.org/2000/svg" xmlns:xlink="http://www.w3.org/1999/xlink">
    <!-- Generator: Sketch 63.1 (92452) - https://sketch.com -->
    <title>ic_zoom_in</title>
    <desc>Created with Sketch.</desc>
    <g id="ic_zoom_in" stroke="none" stroke-width="1" fill="none" fill-rule="evenodd">
        <path d="M15.0452584,7.66370707 L10.3385017,16.530028 C10.0795436,17.0178386 10.2650652,17.6232142 10.7528757,17.8821723 C10.8972781,17.9588294 11.0582728,17.9989131 11.2217608,17.9989131 L20.6359893,17.9989131 C21.188274,17.9989131 21.6359893,17.5511979 21.6359893,16.9989131 C21.6359893,16.8354038 21.5958951,16.6743888 21.5192189,16.5299725 L16.8117472,7.66365151 C16.5527584,7.17585724 15.9473711,6.99037375 15.4595769,7.24936253 C15.2831966,7.34300961 15.1388944,7.48732094 15.0452584,7.66370707 Z M8.08797682,9.85976184 L9.45414577,12.433193 C9.6098091,12.7264135 9.60980827,13.0777704 9.45414355,13.3709903 L7.27864241,17.4689007 C7.10515002,17.7957019 6.76538964,18 6.39539154,18 L3.66305746,18 C3.11077271,18 2.66305746,17.5522847 2.66305746,17 C2.66305746,16.8365067 2.70314374,16.675507 2.77980553,16.5311013 L6.32147179,9.85975966 C6.5804374,9.37195308 7.18581587,9.18644083 7.67362245,9.44540645 C7.85001755,9.53905066 7.99433304,9.68336651 8.08797682,9.85976184 Z" id="Shape" fill="#000000" fill-rule="nonzero"></path>
    </g>
</svg>