<?xml version="1.0" encoding="UTF-8"?>
<svg width="32px" height="32px" viewBox="0 0 32 32" version="1.1" xmlns="http://www.w3.org/2000/svg" xmlns:xlink="http://www.w3.org/1999/xlink">
    <!-- Generator: Sketch 61.2 (89653) - https://sketch.com -->
    <title>broken_media</title>
    <desc>Created with Sketch.</desc>
    <g id="broken_media" stroke="none" stroke-width="1" fill="none" fill-rule="evenodd">
        <path d="M29.7633863,4.35405776 C30.0926885,4.74323308 30.0732163,5.3108076 29.736667,5.6764128 L29.6459422,5.76338629 L27.0271376,7.97977359 C27.58834,8.75174989 27.939741,9.69932749 27.9929427,10.7300382 L28,11.0041891 L28,20.9958109 C28,23.6791799 25.9597467,25.8782056 23.4215853,25.9951118 L23.2089523,26 L8.79104771,26 C7.94857982,26 7.15718921,25.7732837 6.4696616,25.3750674 L3.64594224,27.7633863 C3.22433564,28.1201303 2.59335776,28.0675488 2.23661371,27.6459422 C1.90731152,27.2567669 1.92678374,26.6891924 2.26333301,26.3235872 L2.35405776,26.2366137 L28.3540578,4.23661371 C28.7756644,3.87986967 29.4066422,3.93245115 29.7633863,4.35405776 Z M25.5871707,9.19645421 L18.9569788,14.8059788 L19.6517334,15.2243215 C20.597737,15.7939371 20.5926938,16.7205031 19.6517334,17.287082 L14.7128911,20.2608988 C13.9253127,20.735122 13.2618815,20.5150045 13.0617627,19.7954292 L8.12818969,23.971983 C8.18221806,23.980412 8.23680938,23.9869846 8.29190535,23.9916388 L8.4906747,24 L23.5093253,24 C24.8215011,24 25.9130307,22.8888876 25.9950534,21.4971654 L26,21.328865 L26,10.671135 C26,10.1255015 25.8480659,9.61871881 25.5871707,9.19645421 Z M8.79104771,6 L23.3130207,6.00115516 L20.914,8 L8.4906747,8 C7.17849892,8 6.08696933,9.11111244 6.00494661,10.5028346 L6,10.671135 L6,20.428 L4.09893006,22.0130861 C4.04797449,21.7550413 4.01602166,21.4897217 4.00466434,21.2187934 L4,20.9958109 L4,11.0041891 C4,8.24628204 6.15517494,6 8.79104771,6 Z M14.7128911,12.2505047 L15.3519248,12.635 L12.9999248,14.595 L13,13.2092556 C13,12.1101365 13.7719307,11.6839258 14.7128911,12.2505047 Z" id="Combined-Shape" fill="#000000" fill-rule="nonzero"></path>
    </g>
</svg>