<?xml version="1.0" encoding="UTF-8"?>
<svg width="16px" height="16px" viewBox="0 0 16 16" version="1.1" xmlns="http://www.w3.org/2000/svg" xmlns:xlink="http://www.w3.org/1999/xlink">
    <!-- Generator: Sketch 61.2 (89653) - https://sketch.com -->
    <title>ic_home</title>
    <desc>Created with Sketch.</desc>
    <g id="ic_home" stroke="none" stroke-width="1" fill="none" fill-rule="evenodd">
        <rect id="Bounds" x="0" y="0" width="16" height="16"></rect>
        <path d="M8.53513568,2.15515766 L8.6401844,2.23177872 L14.6401844,7.23177872 C15.0644613,7.5853428 15.1217854,8.2159075 14.7682213,8.6401844 C14.4418544,9.03182461 13.8794634,9.11079496 13.4611676,8.84253912 L13.3598156,8.76822128 L12.9999749,8.469 L13,13 C13,13.5522847 12.5522847,14 12,14 L11,14 C10.4477153,14 10,13.5522847 10,13 L10,11 C10,10.4477153 9.55228475,10 9,10 L7,10 C6.44771525,10 6,10.4477153 6,11 L6,13 C6,13.5522847 5.55228475,14 5,14 L4,14 C3.44771525,14 3,13.5522847 3,13 L2.99997493,8.468 L2.6401844,8.76822128 C2.24854419,9.09458812 1.68113212,9.07084909 1.31806763,8.7315605 L1.23177872,8.6401844 C0.905411876,8.24854419 0.929150907,7.68113212 1.2684395,7.31806763 L1.3598156,7.23177872 L7.3598156,2.23177872 C7.69694828,1.95083482 8.17278423,1.92529446 8.53513568,2.15515766 Z" id="Combined-Shape" fill="#000000" fill-rule="nonzero"></path>
    </g>
</svg>