<?xml version="1.0" encoding="UTF-8"?>
<svg width="16px" height="16px" viewBox="0 0 16 16" version="1.1" xmlns="http://www.w3.org/2000/svg" xmlns:xlink="http://www.w3.org/1999/xlink">
    <title>ic_loop</title>
    <g id="ic_loop" stroke="none" stroke-width="1" fill="none" fill-rule="evenodd">
        <path d="M2,6 C2.51283584,6 2.93550716,6.38604019 2.99327227,6.88337887 L3,7 L3,9 C3,10.0543618 3.81587779,10.9181651 4.85073766,10.9945143 L5,11 L8.585,11 L8.29289322,10.7071068 L8.20970461,10.6128994 C7.90467972,10.2206082 7.93240926,9.65337718 8.29289322,9.29289322 C8.68341751,8.90236893 9.31658249,8.90236893 9.70710678,9.29289322 L9.70710678,9.29289322 L11.7071068,11.2928932 C11.7355731,11.3213595 11.7623312,11.3515341 11.787214,11.3832499 C11.7910504,11.3880716 11.7918034,11.3890437 11.7925543,11.3900168 C11.8145395,11.418642 11.8350511,11.4484386 11.8539326,11.4793398 C11.8613931,11.4913869 11.8685012,11.5036056 11.8753288,11.5159379 C11.8862061,11.5357061 11.8966234,11.5561086 11.9063462,11.5769009 C11.914321,11.5939015 11.9218036,11.6112044 11.9287745,11.628664 C11.9365565,11.6481012 11.9436413,11.6675532 11.9501291,11.6872762 C11.9550667,11.7024696 11.9598084,11.7181954 11.9641549,11.734007 C11.9701664,11.7555635 11.9753602,11.7772539 11.9798348,11.7992059 C11.9832978,11.8166247 11.9863719,11.834051 11.9889822,11.8515331 C11.9920328,11.8714753 11.9944666,11.892114 11.9962623,11.912935 C11.9978436,11.9317345 11.9989053,11.9497336 11.9994829,11.9677454 C11.9998183,11.9777892 12,11.9888734 12,12 L11.9994506,12.0332468 C11.9988884,12.0502546 11.9978945,12.0672508 11.9964691,12.0842176 L12,12 C12,12.0506203 11.9962388,12.1003621 11.9889807,12.1489612 C11.9863719,12.165949 11.9832978,12.1833753 11.9797599,12.2007258 C11.9753602,12.2227461 11.9701664,12.2444365 11.964279,12.2658396 C11.9599023,12.2814633 11.9552713,12.2968513 11.9502619,12.3121425 C11.9438775,12.3317977 11.9366843,12.3515792 11.928896,12.3710585 C11.9218036,12.3887956 11.914321,12.4060985 11.9063266,12.4232215 C11.8966234,12.4438914 11.8862061,12.4642939 11.8751242,12.484277 C11.8685012,12.4963944 11.8613931,12.5086131 11.8540045,12.5207088 C11.8382813,12.546275 11.8215099,12.5711307 11.8036865,12.5951593 C11.774687,12.6343256 11.7425008,12.6717127 11.7071068,12.7071068 L11.787214,12.6167501 C11.7849289,12.6196628 11.7826279,12.6225624 11.7803112,12.625449 L11.7071068,12.7071068 L9.70710678,14.7071068 L9.61289944,14.7902954 C9.22060824,15.0953203 8.65337718,15.0675907 8.29289322,14.7071068 L8.29289322,14.7071068 L8.20970461,14.6128994 C7.90467972,14.2206082 7.93240926,13.6533772 8.29289322,13.2928932 L8.29289322,13.2928932 L8.584,13 L5,13 C2.85780461,13 1.10892112,11.3160315 1.00489531,9.19964034 L1,9 L1,7 C1,6.44771525 1.44771525,6 2,6 Z M11,3 C13.1421954,3 14.8910789,4.68396847 14.9951047,6.80035966 L15,7 L15,9 C15,9.55228475 14.5522847,10 14,10 C13.4871642,10 13.0644928,9.61395981 13.0067277,9.11662113 L13,9 L13,7 C13,5.9456382 12.1841222,5.08183488 11.1492623,5.00548574 L11,5 L5,5 C4.44771525,5 4,4.55228475 4,4 C4,3.48716416 4.38604019,3.06449284 4.88337887,3.00672773 L5,3 L11,3 Z" id="Combined-Shape" fill="#000000" fill-rule="nonzero"></path>
        <path d="M6.29289322,1.29289322 C6.68341751,0.902368927 7.31658249,0.902368927 7.70710678,1.29289322 C8.06759074,1.65337718 8.09532028,2.22060824 7.79029539,2.61289944 L7.70710678,2.70710678 L6.415,4 L7.70710678,5.29289322 C8.06759074,5.65337718 8.09532028,6.22060824 7.79029539,6.61289944 L7.70710678,6.70710678 C7.34662282,7.06759074 6.77939176,7.09532028 6.38710056,6.79029539 L6.29289322,6.70710678 L4.29289322,4.70710678 C3.93240926,4.34662282 3.90467972,3.77939176 4.20970461,3.38710056 L4.29289322,3.29289322 L6.29289322,1.29289322 Z" id="Path-19" fill="#000000" fill-rule="nonzero"></path>
    </g>
</svg>