<?xml version="1.0" encoding="UTF-8"?>
<svg width="16px" height="16px" viewBox="0 0 16 16" version="1.1" xmlns="http://www.w3.org/2000/svg" xmlns:xlink="http://www.w3.org/1999/xlink">
    <!-- Generator: Sketch 63.1 (92452) - https://sketch.com -->
    <title>refresh</title>
    <desc>Created with Sketch.</desc>
    <g id="refresh" stroke="none" stroke-width="1" fill="none" fill-rule="evenodd">
        <rect id="Bounds" x="0" y="0" width="16" height="16"></rect>
        <g id="Group" transform="translate(8.000000, 8.500000) rotate(-90.000000) translate(-8.000000, -8.500000) translate(2.000000, 1.000000)" fill="#000000" fill-rule="nonzero">
            <path d="M2.89598662,3.47846727 C3.26449683,3.81203161 3.29282605,4.38117548 2.95926172,4.74968569 C2.28120455,5.49877952 1.9,6.46849819 1.9,7.5 C1.9,9.20496287 2.94069096,10.6668594 4.42149886,11.2851154 L3.64469872,9.71250551 L3.59795786,9.59938068 C3.45676016,9.17915329 3.64433371,8.70878235 4.05281063,8.50691658 C4.49842181,8.28669938 5.03818236,8.46941731 5.25839956,8.91502849 L5.25839956,8.91502849 L6.83300842,12.1012615 L6.88003079,12.2152153 C7.02181623,12.6384962 6.83005772,13.1118978 6.41647686,13.310957 L6.41647686,13.310957 L3.21402724,14.8523168 L3.10042203,14.8978777 C2.67874776,15.0346939 2.21035464,14.8422346 2.01275141,14.4316787 L2.01275141,14.4316787 L1.96719054,14.3180735 C1.83037439,13.8963993 2.02283361,13.4280061 2.43338951,13.2304029 L2.43338951,13.2304029 L3.36729174,12.7814907 C1.43027762,11.8140576 0.1,9.81238027 0.1,7.5 C0.1,6.01766989 0.649953102,4.61868398 1.62476821,3.54174237 C1.95833255,3.17323216 2.52747642,3.14490294 2.89598662,3.47846727 Z M10.0134066,0.568321257 C10.2110098,0.978877153 10.0692305,1.46501632 9.6992474,1.70923004 L9.5927685,1.76959708 L8.64563699,2.22498634 C10.5756393,3.19485709 11.9,5.19276803 11.9,7.5 C11.9,8.94137712 11.3801193,10.3046225 10.4532677,11.3703091 C10.1270764,11.7453613 9.55860618,11.7849709 9.18355397,11.4587796 C8.80850176,11.1325883 8.76889219,10.5641181 9.09508351,10.1890658 C9.73967313,9.4479218 10.1,8.50306287 10.1,7.5 C10.1,5.80783016 9.07486791,4.35509275 7.61175987,3.72894391 L8.38145928,5.28749449 C8.58332504,5.6959714 8.44661338,6.18355994 8.07919218,6.43161137 L7.97334737,6.49308342 C7.56487046,6.69494919 7.07728192,6.55823752 6.82923049,6.19081632 L6.76775844,6.08497151 L5.19314958,2.8987385 L5.18205426,2.8759744 C5.17148392,2.85301619 5.16185173,2.82953688 5.15320682,2.80558558 L5.19314958,2.8987385 C5.1715673,2.85506658 5.15385646,2.81049784 5.13988351,2.76542019 C5.13377537,2.74595586 5.12838508,2.72607847 5.123671,2.70594082 C5.11836231,2.68347832 5.11393884,2.66081372 5.11040729,2.63811292 C5.10875326,2.62657739 5.10718087,2.61485324 5.10583642,2.6030599 C5.10255208,2.57609659 5.10068114,2.54896402 5.10004026,2.52189541 C5.10009037,2.51486689 5.1,2.507444 5.1,2.5 C5.10047901,2.42694153 5.108151,2.3626539 5.12246495,2.30002503 C5.12442265,2.2906547 5.12667879,2.28140411 5.12907664,2.27221075 C5.13526735,2.24939287 5.14214125,2.22680751 5.14988582,2.20452424 C5.15375669,2.19264355 5.15805958,2.18105185 5.16259156,2.16957564 C5.17048147,2.1502044 5.17882782,2.13100971 5.18783692,2.11211389 C5.19418351,2.09844548 5.20104946,2.08498137 5.20823896,2.07171821 C5.23874739,2.01544437 5.27512538,1.96232541 5.31718118,1.91332575 C5.32167452,1.90843782 5.32626813,1.90321552 5.33092076,1.89804742 C5.34591888,1.88101577 5.36160847,1.86483745 5.37796089,1.84921451 C5.38739211,1.84054905 5.39666536,1.83204973 5.40611409,1.82374529 C5.41857552,1.81250942 5.43171327,1.80162527 5.44521009,1.79108471 C5.46237687,1.77784023 5.47966808,1.76526031 5.49740872,1.75329595 C5.49894941,1.75222748 5.50070712,1.75105599 5.50247002,1.74989 L5.52297958,1.73667325 C5.54548402,1.72257999 5.56865628,1.70945432 5.59243808,1.69735453 L5.60968114,1.68904303 L8.81213077,0.147683166 C9.26000992,-0.0678839904 9.79783943,0.120442098 10.0134066,0.568321257 Z" id="Combined-Shape"></path>
        </g>
    </g>
</svg>