<?xml version="1.0" encoding="UTF-8"?>
<svg width="24px" height="24px" viewBox="0 0 24 24" version="1.1" xmlns="http://www.w3.org/2000/svg" xmlns:xlink="http://www.w3.org/1999/xlink">
    <!-- Generator: Sketch 59.1 (86144) - https://sketch.com -->
    <title>ic_search</title>
    <desc>Created with Sketch.</desc>
    <g id="ic_search" stroke="none" stroke-width="1" fill="none" fill-rule="evenodd">
        <path d="M10.5,4 C14.0898509,4 17,6.91014913 17,10.5 C17,11.9337106 16.5358211,13.2590065 15.7495478,14.3338028 L18.7071068,17.2928932 C19.0976311,17.6834175 19.0976311,18.3165825 18.7071068,18.7071068 C18.3165825,19.0976311 17.6834175,19.0976311 17.2928932,18.7071068 L17.2928932,18.7071068 L14.3338028,15.7495478 C13.2590065,16.5358211 11.9337106,17 10.5,17 C6.91014913,17 4,14.0898509 4,10.5 C4,6.91014913 6.91014913,4 10.5,4 Z M10.5,6 C8.01471863,6 6,8.01471863 6,10.5 C6,12.9852814 8.01471863,15 10.5,15 C12.9852814,15 15,12.9852814 15,10.5 C15,8.01471863 12.9852814,6 10.5,6 Z" id="Combined-Shape" fill="#000000" fill-rule="nonzero"></path>
    </g>
</svg>