<?xml version="1.0" encoding="UTF-8"?>
<svg width="24px" height="24px" viewBox="0 0 24 24" version="1.1" xmlns="http://www.w3.org/2000/svg" xmlns:xlink="http://www.w3.org/1999/xlink">
    <!-- Generator: Sketch 59.1 (86144) - https://sketch.com -->
    <title>ic_target</title>
    <desc>Created with Sketch.</desc>
    <g id="ic_target" stroke="none" stroke-width="1" fill="none" fill-rule="evenodd">
        <path d="M4,15 C4.55228475,15 5,15.4477153 5,16 L5,16 L5,19 L8,19 C8.55228475,19 9,19.4477153 9,20 C9,20.5522847 8.55228475,21 8,21 L8,21 L4,21 C3.44771525,21 3,20.5522847 3,20 L3,20 L3,16 C3,15.4477153 3.44771525,15 4,15 Z M20,15 C20.5522847,15 21,15.4477153 21,16 L21,16 L21,20 L20.9932723,20.1166211 C20.9355072,20.6139598 20.5128358,21 20,21 L20,21 L16,21 L15.8833789,20.9932723 C15.3860402,20.9355072 15,20.5128358 15,20 C15,19.4477153 15.4477153,19 16,19 L16,19 L19,19 L19,16 L19.0067277,15.8833789 C19.0644928,15.3860402 19.4871642,15 20,15 Z M8,3 C8.55228475,3 9,3.44771525 9,4 C9,4.55228475 8.55228475,5 8,5 L5,5 L5,8 C5,8.55228475 4.55228475,9 4,9 C3.44771525,9 3,8.55228475 3,8 L3,4 C3,3.44771525 3.44771525,3 4,3 L8,3 Z M16,3 L20,3 C20.5128358,3 20.9355072,3.38604019 20.9932723,3.88337887 L21,4 L21,8 C21,8.55228475 20.5522847,9 20,9 C19.4871642,9 19.0644928,8.61395981 19.0067277,8.11662113 L19,8 L19,5 L16,5 C15.4477153,5 15,4.55228475 15,4 C15,3.48716416 15.3860402,3.06449284 15.8833789,3.00672773 L16,3 L20,3 Z" id="Combined-Shape" fill="#000000"></path>
    </g>
</svg>