<?xml version="1.0" encoding="UTF-8"?>
<svg width="24px" height="24px" viewBox="0 0 24 24" version="1.1" xmlns="http://www.w3.org/2000/svg" xmlns:xlink="http://www.w3.org/1999/xlink">
    <!-- Generator: Sketch 59.1 (86144) - https://sketch.com -->
    <title>ic_upload</title>
    <desc>Created with Sketch.</desc>
    <g id="ic_upload" stroke="none" stroke-width="1" fill="none" fill-rule="evenodd">
        <path d="M19,14 C19.5522847,14 20,14.4477153 20,15 L20,19 C20,19.5128358 19.6139598,19.9355072 19.1166211,19.9932723 L19,20 L5,20 C4.44771525,20 4,19.5522847 4,19 L4,15 C4,14.4477153 4.44771525,14 5,14 C5.55228475,14 6,14.4477153 6,15 L6,18 L18,18 L18,15 C18,14.4477153 18.4477153,14 19,14 Z M12.0333757,3.00055526 C12.0507089,3.00113216 12.0680301,3.0021586 12.085811,3.0036303 C12.109107,3.00561015 12.1321752,3.00838865 12.1542418,3.01193048 C12.1693318,3.01427976 12.1843793,3.01697599 12.1998061,3.01996428 C12.2248525,3.02504324 12.2495591,3.03105828 12.2738981,3.0381501 C12.286976,3.04186905 12.2999943,3.04585989 12.3127238,3.04987089 C12.335234,3.05727555 12.3573912,3.06545784 12.378744,3.07438033 C12.3951291,3.08108509 12.4113753,3.08824312 12.4280214,3.09597194 C12.4512482,3.10698836 12.4739828,3.11887355 12.495923,3.13155194 L12.495923,3.13155194 L12.532,3.154 L12.624695,3.21913119 L12.57,3.179 L12.5815216,3.1863743 L12.5815216,3.1863743 L12.6348013,3.22728732 L17.624695,7.21913119 C18.055957,7.56414074 18.1258784,8.19343311 17.7808688,8.62469505 C17.4358593,9.05595698 16.8065669,9.12587836 16.375305,8.78086881 L16.375305,8.78086881 L12.9999632,6.081 L13,14 C13,14.5522847 12.5522847,15 12,15 C11.4477153,15 11,14.5522847 11,14 L11,14 L10.9999632,6.081 L7.62469505,8.78086881 C7.19343311,9.12587836 6.56414074,9.05595698 6.21913119,8.62469505 C5.87412164,8.19343311 5.94404302,7.56414074 6.37530495,7.21913119 L6.37530495,7.21913119 L11.3651987,3.22728732 C11.3997669,3.19885569 11.4362765,3.17269849 11.474358,3.14923394 C11.4841853,3.14315417 11.4940933,3.13726017 11.5038168,3.13158553 C11.5260172,3.11887355 11.5487518,3.10698836 11.5725362,3.09585443 C11.5886247,3.08824312 11.6048709,3.08108509 11.6208364,3.07438599 C11.6426088,3.06545784 11.664766,3.05727555 11.687056,3.05012264 C11.7000057,3.04585989 11.713024,3.04186905 11.7261122,3.03797128 C11.7504409,3.03105828 11.7751475,3.02504324 11.8006285,3.02001918 C11.8156207,3.01697599 11.8306682,3.01427976 11.8450117,3.0119383 C11.8955228,3.0040789 11.9472851,3 12,3 L12,3 Z M12.541,3.16 L12.5616061,3.17256356 L12.5616061,3.17256356 L12.57,3.179 L12.541,3.16 Z M11.999,3 L11.9146792,3.00363458 C11.9323011,3.00213033 11.9499547,3.00109301 11.9676203,3.00052261 L11.9676203,3.00052261 L11.999,3 Z" id="Combined-Shape" fill="#000000"></path>
    </g>
</svg>