<?xml version="1.0" encoding="UTF-8"?>
<svg width="24px" height="24px" viewBox="0 0 24 24" version="1.1" xmlns="http://www.w3.org/2000/svg" xmlns:xlink="http://www.w3.org/1999/xlink">
    <!-- Generator: Sketch 59.1 (86144) - https://sketch.com -->
    <title>ic_video</title>
    <desc>Created with Sketch.</desc>
    <g id="ic_video" stroke="none" stroke-width="1" fill="none" fill-rule="evenodd">
        <path d="M18.0074602,4 C20.2139514,4 22,5.79156652 22,8.00335124 L22,15.9966488 C22,18.2029744 20.2040209,20 18.0074602,20 L5.99253976,20 C3.78604858,20 2,18.2084335 2,15.9966488 L2,8.00335124 C2,5.79702563 3.79597912,4 5.99253976,4 L18.0074602,4 Z M18.0074602,6 L5.99253976,6 C4.90080951,6 4,6.90133441 4,8.00335124 L4,15.9966488 C4,17.1052427 4.8920015,18 5.99253976,18 L18.0074602,18 C19.0991905,18 20,17.0986656 20,15.9966488 L20,8.00335124 C20,6.89475731 19.1079985,6 18.0074602,6 Z M11.6961367,9.2942168 L14.278595,10.9269366 C15.2153455,11.5191828 15.2180278,12.4777077 14.278595,13.0716498 L11.6961367,14.7043696 C10.7593863,15.2966158 10,14.8804164 10,13.7719954 L10,10.226591 C10,9.11940875 10.7567039,8.70027473 11.6961367,9.2942168 Z" id="Combined-Shape" fill="#333333" fill-rule="nonzero"></path>
    </g>
</svg>